<?xml version="1.0" encoding="UTF-8"?>
<svg id="Layer_1" data-name="Layer 1" xmlns="http://www.w3.org/2000/svg" viewBox="0 0 702.75 992.78">
  <defs>
    <style>
      .cls-1 {
        fill: #231f20;
      }
    </style>
  </defs>
  <path class="cls-1" d="M107.94,302.71c4.38-15.52,8.91-30.99,13.63-46.41s8.51-29.99,14.48-44.23l-5.54,13.14c1.56-3.5,3.32-6.74,5.62-9.81l-8.6,11.13c1.56-1.9,3.22-3.58,5.12-5.14l-11.13,8.6c2.17-1.61,4.43-2.9,6.91-3.97l-13.14,5.54c2.89-1.1,5.78-1.82,8.83-2.3l-14.62,1.96c7.09-.94,14.2-.58,21.33-.52,12.78.11,25.75-1.63,38.21-4.4,20.99-4.66,41.45-14.3,59.76-25.42,35.83-21.74,66.32-51.14,99.27-76.77l-11.13,8.6c13.59-10.5,28.06-21.68,43.91-28.55l-13.14,5.54c2.14-.8,4.19-1.37,6.46-1.68l-14.62,1.96c1.09-.1,2.17-.07,3.25.08l-14.62-1.96c1.03.15,2.02.41,2.98.79l-13.14-5.54c1.87.84,3.49,1.85,5.12,3.09l-11.13-8.6c6.99,5.95,12.54,13.76,18.15,20.97l-8.6-11.13c13.64,17.68,27.86,36.5,36.95,57.02-1.85-4.38-3.7-8.76-5.54-13.14,2.47,5.88,4.31,11.86,5.25,18.19l-1.96-14.62c.48,4.14.53,8.17.13,12.32l1.96-14.62c-1.15,8.38-4.31,16.02-7.48,23.8s-6.12,15.72-8.81,23.72c-5.39,16.08-9.8,32.49-13.41,49.06-8.3,38.04-13.05,77.05-15.48,115.89-4.64,74.13.39,148.4,4.11,222.46,2.11,42.02,4.22,84.15-1.24,126l1.96-14.62c-4.55,33.8-12.47,67.03-17.68,100.72-5.47,35.4-9.16,70.97-12.51,106.61-1.24,13.25,7.03,29.81,16.11,38.89,9.54,9.54,25.19,16.72,38.89,16.11,14.22-.64,28.98-5.31,38.89-16.11l8.6-11.13c4.98-8.58,7.48-17.83,7.51-27.76,2.31-24.59,4.61-49.19,7.89-73.67-.65,4.87-1.31,9.75-1.96,14.62,4.47-32.95,11.53-65.38,17.12-98.13,6.55-38.3,9.49-76.27,8.4-115.07-1.97-69.87-8.18-139.54-7.95-209.49.12-37.45,2.02-74.9,6.91-112.05l-1.96,14.62c3.94-29.33,9.7-58.46,18.36-86.79,4.11-13.44,9.06-26.5,14.31-39.52,8.8-21.82,9.96-46.26,3.59-68.96-9.86-35.11-34.65-65.73-56.81-93.86-4.28-5.44-8.53-11.18-13.53-15.99C377.6,8.19,360.01.05,339.54,0c-22.44-.06-43.17,12.79-61.04,25.16-30.46,21.06-57.66,46.26-86.9,68.88l11.13-8.6c-16.8,12.89-34.47,24.81-54,33.17l13.14-5.54c-10.21,4.24-20.74,7.37-31.72,8.85l14.62-1.96c-6.43.76-12.81.78-19.27.66-10.37-.18-20.34.88-30.63,2.57-24.32,4.01-47.66,22.14-58.31,44.22-8.76,18.17-14.32,37.66-20.22,56.88-5.02,16.34-9.84,32.73-14.48,49.18-3.86,13.68-1.62,30.14,5.54,42.38,6.68,11.41,19.76,22.29,32.87,25.28,14.08,3.21,29.88,2.51,42.38-5.54s21.3-18.77,25.28-32.87h0Z"/>
  <path class="cls-1" d="M94.8,991.09c30.37-7.14,61.06-12.82,91.98-16.99-4.87.65-9.75,1.31-14.62,1.96,64.14-8.52,129.41-11.06,193.86-4.5,16.32,1.66,32.62,3.7,49.02,4.41,20.74.9,40.98-1.38,61.5-4.3,30.49-4.34,60.62-12.03,89.96-21.3,37.39-11.82,73.9-26.88,109.13-44.05,11.85-5.78,21.88-20.54,25.28-32.87,3.63-13.17,1.99-30.7-5.54-42.38-7.57-11.74-18.85-22.08-32.87-25.28-4.87-.65-9.75-1.31-14.62-1.96-9.93.03-19.18,2.53-27.76,7.51-11.95,5.82-24.05,11.33-36.29,16.51,4.38-1.85,8.76-3.7,13.14-5.54-48.31,20.29-99.57,36.47-151.61,43.56l14.62-1.96c-25.24,3.28-50.09,2.25-75.33-.38-25-2.6-49.92-4.91-75.06-5.46-54.17-1.19-108.08,3.56-161.66,11.29-27.67,4-55.15,9.26-82.36,15.65-13.15,3.09-26.15,13.79-32.87,25.28s-9.82,29.16-5.54,42.38,12.55,26.15,25.28,32.87c13.38,7.07,27.49,9.04,42.38,5.54h0Z"/>
</svg>