<?xml version="1.0" encoding="UTF-8"?>
<svg id="Layer_1" data-name="Layer 1" xmlns="http://www.w3.org/2000/svg" viewBox="0 0 284.99 285.46">
  <defs>
    <style>
      .cls-1 {
        fill: #82358c;
      }
    </style>
  </defs>
  <path class="cls-1" d="M28.63,63l10.29,7.84c6.9,1.45,10.45,4.87,10.64,10.27.09.63.61,6.84-.35,7.05.07-.01.34-1.44.39-1.58.97-2.43-1.8,3.98-1.51,3.4,1.75-3.45-2.2,2.78-2.16,2.41.04-.41,1.3-1.48,1.59-1.8,1.25-1.4,2.51-2.79,3.79-4.16,4.77-5.12,9.77-10.02,15.05-14.6,1.22-1.06,2.45-2.1,3.7-3.12.62-.51,1.26-1,1.88-1.51,2.11-1.74-1.93,1.48-1.88,1.45,3.21-1.76,6.1-4.4,9.21-6.37,2.69-1.7,5.45-3.3,8.26-4.78,1.4-.74,2.82-1.45,4.26-2.13,0,0,2.78-1.06,2.89-1.31-.26.62-5.12,1.99-1.57.71,6.3-2.27,12.5-3.71,19.03-5.08.29-.06-5.9.59-3.16.47.7-.03,1.4-.13,2.1-.18,1.41-.1,2.82-.17,4.23-.2,3.31-.07,6.57.17,9.87.4,4.49.31-5.48-1-1.06-.13,1.38.27,2.76.52,4.13.83,3.19.73,6.27,1.73,9.36,2.79,4.15,1.43-4.78-2.32-.86-.39,1.24.61,2.48,1.2,3.69,1.85s2.39,1.35,3.55,2.07c.94.59,5.27,3.82,1.96,1.16-3.49-2.8.91.84,1.66,1.53,1,.92,1.98,1.88,2.91,2.88s1.73,2.16,2.7,3.1c.12.12-3.17-4.52-1.84-2.31.47.79,1.05,1.53,1.54,2.31.99,1.57,1.8,3.22,2.71,4.83,2.23,3.95-1.41-4.36,0-.07,1.09,3.34,1.8,6.69,2.69,10.07.68,2.57-.36-2.52-.29-2.66-.19.38.3,3.03.31,3.22.12,1.62.18,3.24.19,4.86s-.03,3.26-.12,4.88c-.06,1.1-.71,7.23-.21,3.18s-.32,1.34-.52,2.32c-.39,1.87-.84,3.72-1.35,5.55-.44,1.57-.92,3.12-1.44,4.66-.27.81-.56,1.61-.86,2.42-.26.69-1.79,4.33-.31.98s-.77,1.63-1.17,2.46c-.86,1.79-1.77,3.56-2.72,5.31-1.77,3.25-3.68,6.43-5.69,9.53s-4.16,6.16-6.37,9.15c-.51.69-1.04,1.37-1.55,2.06-1.65,2.22,1.25-1.64,1.28-1.66-1.44,1.15-2.6,3.25-3.78,4.68-9.54,11.56-19.79,22.56-30.51,33.04-5.99,5.86-12.15,11.55-18.46,17.05-3.05,2.66-6.13,5.28-9.25,7.85-1.78,1.47-3.58,2.93-5.38,4.37-.68.54-1.36,1.08-2.04,1.62-.54.43-3.7,2.87-.88.71s.29-.22-.22.16c-.92.7-1.84,1.4-2.77,2.09-1.62,1.21-3.24,2.42-4.88,3.61-3.5,2.55-7.04,5.05-10.62,7.5-7.15,4.9-14.45,9.57-21.87,14.05-8.64,5.22-13.27,14.96-11.94,24.91,1.36,10.12,8.31,17.57,17.91,20.78,67.31,22.54,128.34-23.47,186.51-49.74.6-.27,3.41-1.42.23-.12-3.73,1.52,1.56-.63,1.85-.74,1.88-.75,3.78-1.48,5.68-2.18,4.06-1.5,8.18-2.87,12.34-4.06,3.87-1.11,7.79-2.09,11.74-2.89,1.55-.31,5.49-1.8,6.82-1.2.1.05-5.28.57-2.34.33,1.45-.12,2.89-.3,4.34-.42,13-1.1,25.64-10.71,25-25-.56-12.6-11.05-26.19-25-25-34,2.89-64.45,16.4-94.35,32.09-13.26,6.96-26.38,14.24-40.01,20.48-1.69.77-4.26,1.41-5.69,2.53.06-.05,4.48-1.83,1.86-.79-.83.33-1.65.68-2.48,1.01-3.59,1.43-7.21,2.78-10.87,4.02-7.24,2.46-14.62,4.52-22.12,5.99-1.88.37-4.22.38-6,1.04.01,0,5.2-.57,2.35-.33-1.43.12-2.86.31-4.29.42-3.98.32-7.99.43-11.99.31-1.99-.06-3.98-.19-5.96-.37-.8-.07-1.74-.31-2.55-.26,1.35-.08,4.95.82,1.57.14-4.54-.91-8.97-1.99-13.36-3.46,1.99,15.23,3.98,30.46,5.97,45.69,31.19-18.85,60.42-41.37,86.48-66.85s53.58-55.62,65.05-91.58c5.85-18.35,6.84-39.55,1.24-58.09-5.82-19.26-18.18-35.14-35.04-45.99-31.28-20.12-70.79-17.56-103.24-2.21-17.5,8.28-33.2,21.04-46.69,34.79-7.79,7.94-15.93,16.22-18.74,27.35-2.09,8.3-1.26,16.79,2.67,24.38,4.84,9.35,14.87,13.65,24.84,14.28,13.08.82,25.58-12.08,25-25-.64-14.25-10.99-24.12-25-25h0Z"/>
</svg>