<?xml version="1.0" encoding="UTF-8"?>
<svg id="Layer_1" data-name="Layer 1" xmlns="http://www.w3.org/2000/svg" viewBox="0 0 736.79 962.56">
  <defs>
    <style>
      .cls-1 {
        fill: #231f20;
      }
    </style>
  </defs>
  <path class="cls-1" d="M209.72,256.93c2.13-4.3,4.62-8.33,7.5-12.16-5.86,7.59-11.73,15.18-17.59,22.77,4.4-5.63,9.46-10.55,15.06-14.99-7.59,5.86-15.18,11.73-22.77,17.59,10.52-8.1,22.31-14.18,34.51-19.33l-26.87,11.34c21.25-8.82,43.45-15.69,65.55-22.02,24.26-6.95,48.9-12.58,73.91-15.96-9.97,1.34-19.94,2.68-29.91,4.02,26.17-3.42,52.98-4.65,79.22-1.19l-29.91-4.02c11.54,1.64,22.82,4.37,33.59,8.89l-26.87-11.34c7.36,3.24,14.17,7.26,20.56,12.15-7.59-5.86-15.18-11.73-22.77-17.59,7.98,6.31,14.96,13.62,21.24,21.62l-17.59-22.77c8.65,11.28,15.75,23.53,21.31,36.61l-11.34-26.87c5.6,13.55,9.42,27.67,11.38,42.2l-4.02-29.91c1.67,13.41,1.71,26.88-.02,40.29,1.34-9.97,2.68-19.94,4.02-29.91-1.68,11.92-4.73,23.52-9.3,34.66l11.34-26.87c-4.71,11.14-10.81,21.55-18.14,31.17,5.86-7.59,11.73-15.18,17.59-22.77-7.43,9.53-15.94,18.07-25.47,25.5,7.59-5.86,15.18-11.73,22.77-17.59-9.18,7-19.09,12.84-29.73,17.35l26.87-11.34c-8.9,3.66-18.1,6.31-27.6,7.88,28.9,68.54,57.79,137.08,86.69,205.62l1.35-.59-26.87,11.34c10.32-4.34,21.07-7.26,32.15-8.86-9.97,1.34-19.94,2.68-29.91,4.02,12.99-1.73,26.06-1.59,39.04.15-9.97-1.34-19.94-2.68-29.91-4.02,14.13,2.03,27.85,5.91,41.04,11.37l-26.87-11.34c14.19,6.02,27.49,13.77,39.73,23.14-7.59-5.86-15.18-11.73-22.77-17.59,12.07,9.39,22.7,20.23,32.13,32.26-5.86-7.59-11.73-15.18-17.59-22.77,12.05,15.65,21.77,32.82,29.46,51l-11.34-26.87c10.15,24.41,16.54,50.14,20.08,76.31-1.34-9.97-2.68-19.94-4.02-29.91,3.9,29.93,4.48,60.46.5,90.41l4.02-29.91c-2.66,19.11-7.3,37.87-14.78,55.69l11.34-26.87c-5.46,12.69-12.29,24.64-20.73,35.58,5.86-7.59,11.73-15.18,17.59-22.77-8.14,10.33-17.54,19.45-27.87,27.58,7.59-5.86,15.18-11.73,22.77-17.59-18.88,14.58-40.11,25.56-62.02,34.81l26.87-11.34c-29.48,12.3-60.29,21.22-91.95,25.62,9.97-1.34,19.94-2.68,29.91-4.02-24.98,3.33-50.22,3.76-75.23.47,9.97,1.34,19.94,2.68,29.91,4.02-19.37-2.69-38.4-7.52-56.47-15.03l26.87,11.34c-16.17-6.86-31.32-15.76-45.26-26.44,7.59,5.86,15.18,11.73,22.77,17.59-13.43-10.45-25.52-22.44-35.95-35.88,5.86,7.59,11.73,15.18,17.59,22.77-9.03-11.82-16.64-24.57-22.53-38.23l11.34,26.87c-5.37-12.74-9.13-26.01-11.04-39.71l4.02,29.91c-.74-5.72-1.17-11.45-1.28-17.22.58-15.49-2.65-29.94-9.69-43.34-4.54-13.95-12.29-26.02-23.26-36.21-10.19-10.97-22.26-18.72-36.21-23.26-13.41-7.04-27.85-10.27-43.34-9.69-9.97,1.34-19.94,2.68-29.91,4.02-19.06,5.35-35.61,14.99-49.64,28.93-5.86,7.59-11.73,15.18-17.59,22.77-10.18,17.55-15.3,36.47-15.36,56.78.34,17.89,3.15,35.96,6.3,53.48,1.47,8.18,3.63,16.23,6.41,24.06,8.42,23.71,18.52,47.91,33.21,68.59s30.81,41.78,50.46,58.48c19.52,16.59,40.42,33,63.49,44.54,24.38,12.19,50.4,22.98,77.19,28.71,19.21,4.11,38.85,6.53,58.39,8.35,9.88.92,19.81,1.27,29.73,1.08,10.27-.19,20.52-.93,30.71-2.17,19.29-2.35,38.77-4.66,57.83-8.67s39.56-10.16,58.58-17.56c26.3-10.24,53.3-21.09,77.63-35.72,15.97-9.61,30.66-21.39,45.16-33.01,7.27-5.82,14.13-12.12,20.34-19.07,12.02-13.48,23.39-27.94,32.93-43.32s16.28-33.21,23.28-50.13c7.08-17.11,11.58-35.05,14.25-53.35,4.09-28.09,7.61-55.66,6.77-84.03-.83-28.07-4.55-56.24-9.56-83.82-3.32-18.26-8.17-36.27-14.87-53.59-9.88-25.53-20.46-51.49-35.98-74.24s-31.53-44.09-52.02-61.17c-20.03-16.7-40.95-33.17-64.98-43.74-15.9-6.99-32.25-14.58-49.13-19.35s-35.7-6.61-53.59-8.84c-8.41-1.05-16.9-1.39-25.36-.96-17.69.92-35.53,3.22-52.8,7.2-16.97,3.91-33.26,11.86-49,18.69-13.11,7.07-23.63,16.73-31.56,28.98-9.94,10.87-16.66,23.62-20.14,38.26-1.34,9.97-2.68,19.94-4.02,29.91-.58,15.49,2.65,29.94,9.69,43.34,2.67,9.53,7.49,17.8,14.47,24.82,7.93,12.25,18.45,21.91,31.56,28.98l26.87,11.34c19.94,5.36,39.88,5.36,59.81,0,19.68-3.24,37.63-11.78,55.79-19.78,9.23-4.07,17.98-9.06,26.1-15.05,15.31-11.3,31.29-22.72,44.07-37.03s25.29-29.96,34.87-46.81c2.51-4.4,4.73-8.94,6.76-13.58,5.83-13.34,12.18-26.77,16.41-40.77,5.99-19.8,8.37-41.17,9.79-61.63,1.47-21.13-2.28-42.14-5.31-62.97-1.67-11.51-4.58-22.85-8.66-33.74-7.07-18.9-14.86-38.66-25.63-56s-23.57-34.45-38.15-49c-10.51-10.48-23.11-19.37-34.87-28.04-5.31-3.91-10.98-7.15-16.96-9.93-19.76-9.16-38.88-17.39-60.31-20.69C398.04,2.89,376.34-.08,354.17,0c-13.5.05-26.99.97-40.38,2.59-36.24,4.38-71.57,10.09-106.67,20.05-35.02,9.94-69.42,22.05-102.42,37.5-19,8.9-35.17,21.69-51.33,35.1-4.38,3.64-8.35,7.67-11.95,12.08-8.88,10.87-19.48,22.93-25.97,36.05-8.22,12.91-12.67,26.86-13.35,41.83-3.35,14.95-2.68,29.91,2.01,44.86,3.48,14.64,10.19,27.39,20.14,38.26,7.93,12.25,18.45,21.91,31.56,28.98l26.87,11.34c19.94,5.36,39.88,5.36,59.81,0l26.87-11.34c16.9-10,30.36-23.45,40.36-40.36h0Z"/>
</svg>