<?xml version="1.0" encoding="UTF-8"?>
<svg id="Layer_1" data-name="Layer 1" xmlns="http://www.w3.org/2000/svg" viewBox="0 0 448.11 564">
  <defs>
    <style>
      .cls-1 {
        fill: #fff;
      }
    </style>
  </defs>
  <path class="cls-1" d="M12.03,548.45l-3.47-123.72c-.66-23.39-1.32-46.83-4.48-70.01-1.99-14.56-4.96-29.16-3.82-43.81,1.01-13,5.23-25.5,8.44-38.15,12.8-50.42,9.56-103.34,6.23-155.25-1.95-30.37-3.89-60.74-5.84-91.11,20.09-6.66,40.17-13.31,60.26-19.97,7.06-2.34,14.17-4.69,21.53-5.73,8.09-1.14,16.32-.66,24.47-.19,50.39,2.95,100.78,5.9,151.17,8.85,32.3,1.89,64.79,3.78,96.94.15,22.74-2.57,84.66,3.75,84.66,3.75,0,0-12.28,31.81-12.01,44.32.67,31.3,1.34,62.61,2.01,93.91.23,10.92.46,21.91-1.37,32.68-2.77,16.31-10.21,31.72-11.48,48.22-.88,11.47,1.27,22.93,2.74,34.35,5.61,43.6,1.26,87.79,1.89,131.74.79,55.51,9.52,110.57,18.23,165.4-19.15-11.89-41.8-18.07-64.34-17.56-12.98.29-25.9,2.74-38.86,2.09-19.61-.99-38.14-9.01-57.46-12.44-7.4-1.32-15.22-1.92-22.26.7-7.78,2.89-13.61,9.31-20.32,14.19-15.06,10.95-34.62,14.01-53.21,12.92-18.59-1.09-36.72-5.95-55.01-9.44-41.07-7.84-83.46-8.75-124.83-2.69"/>
</svg>