<?xml version="1.0" encoding="UTF-8"?>
<svg id="Layer_1" data-name="Layer 1" xmlns="http://www.w3.org/2000/svg" viewBox="0 0 910.67 1000">
  <defs>
    <style>
      .cls-1 {
        fill: #c94a95;
      }
    </style>
  </defs>
  <path class="cls-1" d="M301.72,34.1h305.11s8.55,2.14,9.98,11.41,2.46,48.8.81,59.74c-2.37,15.69-10.79,18.67-10.79,18.67h-83.41s-37.78,16.4-39.92,49.19,15.88,120.48,16.49,145.43-.69,610.91-.69,610.91c0,0-.87,38.51-43.98,38.51s-42.41-42.44-42.41-42.44c0,0-1.41-589.17-.7-606.99s16.4-104.08,15.68-141.86-39.92-54.18-39.92-54.18l-86.26,1.43s-7.76-9.6-9.39-19.13c-1.52-8.91-1.7-46.08,0-54.65,2.63-13.23,9.39-16.04,9.39-16.04Z"/>
</svg>