<?xml version="1.0" encoding="UTF-8"?>
<svg id="Layer_1" data-name="Layer 1" xmlns="http://www.w3.org/2000/svg" viewBox="0 0 420.25 1000">
  <defs>
    <style>
      .cls-1 {
        fill: #ffc316;
      }
    </style>
  </defs>
  <path class="cls-1" d="M207.86,1000H0s47.49-243.24,107.22-334.8c-9.89-21.74-11.7-47.01-13.31-71.5-4.6-69.71-9.18-140.08-.76-209.31,1.44-11.8,3.25-23.75,1.85-35.55-1.47-12.43-6.4-23.88-10.52-35.48-26.14-73.82-18.56-162.33,19.59-228.81,11.7-20.38,26.23-38.9,44.03-52.15,23.22-17.28,50.87-24.84,78.25-29.06,45.75-7.06,95.18-4.66,133.84,24.46,45.34,34.16,67.39,102.4,57.89,163.95-3.49,22.63-10.73,44.35-13.73,67.07-5.8,43.88,4.47,88.26,6.05,132.61,4.12,115.62-49.98,221.53-91.89,326.64-3.18,7.97-6.32,16.05-7.93,24.63-1.98,10.51-1.6,21.4-1.83,32.15-1.96,89.9-100.89,225.16-100.89,225.16Z"/>
</svg>