<?xml version="1.0" encoding="UTF-8"?>
<svg id="Layer_1" data-name="Layer 1" xmlns="http://www.w3.org/2000/svg" viewBox="0 0 714.14 787.9">
  <defs>
    <style>
      .cls-1 {
        fill: #c94a95;
      }
    </style>
  </defs>
  <path class="cls-1" d="M82.46,617.27c-3.53-6.05-10.86-7.59-16.93-4.37-4.84,2.57-7.8,7.78-9.51,12.81-2.91,8.56-1.38,17.65-.3,26.38.48,3.9.95,7.87.69,11.8-.18,2.68-.88,5.31-3.49,7.33-3.5,2.7-8.22,4.04-12.2,5.83-4.92,2.22-9.31,5.3-12.72,9.52-4.03,4.99-6.29,11.1-5.18,17.54s5.34,10.95,10.08,15.05c9.41,8.14,20.28,14.99,33.11,15.28,12.31.28,22.58-6.27,29-16.49,4.77-7.6,7.54-16.36,11.97-24.18,7.29-12.87,15.72-25.19,24.58-37.02,2.98-3.98.98-11.7-3.59-13.68-6.77-2.93-13.41-6.22-19.93-9.68-10.19-5.42-20.65-10.96-27.92-19.35-3.54-4.08-10.52-3.63-14.14,0-4.05,4.05-3.55,10.05,0,14.14,8.18,9.45,20.03,16.06,30.9,21.91,6.85,3.69,13.85,7.16,20.99,10.25l-3.59-13.68c-5.41,7.23-10.56,14.68-15.5,22.24-4.09,6.26-8.04,12.63-11.52,19.25s-5.54,13.62-9.53,19.72c-4.37,6.68-11.18,7.96-18.5,5.13-3.69-1.43-7.15-3.82-10.22-6.29-1.75-1.4-3.51-2.89-5.1-4.48-.53-.53-1-1.12-1.51-1.65-.36-.37-.8,1.06.09.18,1.88-1.84,3.05-3.8,5.66-5.17,3.92-2.06,8.19-3.37,12.1-5.46,7.44-3.97,13.19-10.64,15.15-18.94s.65-16.1-.35-24.19c-.46-3.71-.88-7.46-.72-11.2.05-1.23.12-2.41.77-4.21-.36,1.01.32-1.38.33-.76l.58-1c-1.03.69-2.17,1.15-3.43,1.39l-5.05-1.37.78.35-3.59-3.59.46.78c6.48,11.12,23.77,1.06,17.27-10.09h0Z"/>
  <path class="cls-1" d="M25.07,702.4c-2.36,18.57-4.61,37.16-8.92,55.41-1.72,7.27,7.04,12.56,12.54,7.3,14.01-13.43,30.42-24.65,46.47-35.51,7.95-5.38.45-18.38-7.57-12.95-17.08,11.55-34.59,23.56-49.5,37.85l12.54,7.3c4.62-19.54,6.93-39.5,9.46-59.39.51-4.03-3.81-7.5-7.5-7.5-4.48,0-6.99,3.46-7.5,7.5h0Z"/>
  <path class="cls-1" d="M9.53,785.68c6.14-8.78,12.8-17.12,20.02-25.04,4.33-4.75-2.72-11.84-7.07-7.07-7.79,8.54-14.96,17.59-21.59,27.06-3.7,5.28,4.97,10.29,8.63,5.05h0Z"/>
  <path class="cls-1" d="M148.43,412.44c-22.72,31.45-44.19,63.78-64.3,96.95-10.06,16.58-19.77,33.38-29.14,50.36-4.25,7.69-10.51,16.23-12.43,24.89-2.08,9.39,3.55,18.81,8.47,26.44,17.13,26.61,45.68,43.95,75.78,52.2,7.87,2.16,16.01,3.81,24.14,4.61,10.26,1.01,18.96-2.42,25.28-10.59,5.92-7.65,10.61-16.41,15.7-24.63,5.2-8.41,10.39-16.83,15.57-25.26,24.17-39.33,48.07-78.82,71.7-118.47,6.61-11.08-10.68-21.15-17.27-10.09-19.24,32.29-38.66,64.47-58.26,96.54-9.97,16.32-19.99,32.61-30.05,48.87-4.28,6.92-8.13,14.79-13.28,21.1-4.18,5.11-12.44,2.18-18.03,1.05-26.6-5.36-53.04-18-70.04-39.77-1.71-2.2-3.28-4.52-4.75-6.89-1.72-2.76-4.41-6.31-5.09-9.51-.61-2.86,1.72-5.49,3.1-8.04,2.23-4.13,4.47-8.25,6.74-12.36,8.62-15.61,17.53-31.06,26.72-46.34,20.81-34.58,43.1-68.26,66.73-100.97,3.16-4.38.76-11.14-3.59-13.68-5.04-2.95-10.51-.8-13.68,3.59h0Z"/>
  <path class="cls-1" d="M202.01,412.14c-16.11-8.87-42.78-17.47-54.99,2.05-12.01,19.19,12.35,37.97,26.23,47.75,16.67,11.74,36.39,18.54,55.21,25.97,15.61,6.16,43.3,20.63,51.71-3.31,3.83-10.89-.38-22.79-7.35-31.37-6.91-8.5-16.93-13.45-26.68-17.91-4.91-2.25-10.77-1.4-13.68,3.59-2.52,4.3-1.35,11.42,3.59,13.68,7.52,3.44,16.3,6.92,21.63,13.56,1.64,2.04,6.25,9.99,3.39,12.16-1.39,1.06-7.28-1.81-8.68-2.34-4.36-1.66-8.68-3.43-13.02-5.14-9.03-3.57-18.12-7.02-27.08-10.77-16.29-6.82-31.53-15.38-43.65-28.42-1.23-1.33-5.34-5.02-4.83-6.67s3.12-2.47,4.58-2.65c7.88-.98,16.85,3.42,23.53,7.1,11.28,6.21,21.38-11.05,10.09-17.27h0Z"/>
  <path class="cls-1" d="M68.3,554.24c11.2,19.9,31.7,30.77,51.37,40.69,23.1,11.65,46.48,22.44,72.46,25.36,5.38.6,10-5.03,10-10,0-5.91-4.61-9.39-10-10-22.18-2.49-42.71-12.72-62.37-22.63-16.44-8.29-34.79-16.81-44.19-33.52-6.31-11.22-23.6-1.15-17.27,10.09h0Z"/>
  <path class="cls-1" d="M87.32,524.92c16.08,17.2,35.65,30.57,57.37,39.57,5.31,2.2,10.78,3.97,16.15,6.04s9.91,5,14.88,7.58c11.81,6.14,24.59,7.47,37.68,8.27s12.81-19.22,0-20c-10.96-.67-20.95-1.81-30.67-7.24s-20.61-8.97-31.17-13.3c-19.06-7.81-36.06-20.05-50.09-35.06-8.81-9.42-22.93,4.74-14.14,14.14h0Z"/>
  <path class="cls-1" d="M104.97,484.21c13.38,18.79,31.15,33.67,51.42,44.61,22.69,12.24,47.6,19.16,72.52,25.2,12.5,3.03,17.84-16.25,5.32-19.29-41.65-10.1-85.9-24-111.98-60.62-3.13-4.39-8.72-6.49-13.68-3.59-4.34,2.54-6.74,9.26-3.59,13.68h0Z"/>
  <path class="cls-1" d="M182.99,371.16c9.29-10.76,17.18-22.63,25.77-33.93,4.03-5.3,10.83-10.81,10.79-17.92-.05-9.36-11.22-13.91-17.97-18.32-3.21-2.1-6.18-4.37-10-5.13-6.05-1.21-10.11,2.02-13.56,6.46-4.5,5.78-9.58,11.08-15.18,15.82s-13.03,7.87-16.61,14.24c-3.03,5.38-2.11,11.18,1.02,16.16,6.26,9.97,14.59,21.07,26.02,25.21,5.08,1.84,10.95-2.07,12.3-6.98,1.53-5.56-1.89-10.46-6.98-12.3,2.03.74-1.27-.84-1.72-1.17.76.56-1.85-1.71-2.21-2.06-1.92-1.88-4.1-4.36-5.52-6.18-1.15-1.47-2.77-3.76-3.99-5.64-.47-.72-.88-1.65-1.44-2.3-1.67-1.94.77,3.51.18-.03v5.32c.31-1.59.21-1.58-.31.03.23-.49.64-.82,1.24-.99,1.41-.69,2.9-1.97,4.17-2.89,3.42-2.49,6.76-5.12,9.93-7.92,2.95-2.62,5.76-5.4,8.4-8.33,1.13-1.26,2.24-2.54,3.31-3.85.71-.87,1.41-1.76,2.1-2.65,1.67-2.14,2.09-2.69,1.26-1.65l-7.71,1.01c2.69.37,6.09,3.68,8.48,5.24,3.03,1.98,6.18,3.87,9.09,6.03l-3.59-3.59.66.94-1.37-5.05.04,1.2,1.37-5.05c-1.42,3.04-5.29,6.87-7.59,9.85-2.88,3.75-5.69,7.55-8.48,11.37-5.19,7.09-10.27,14.28-16.02,20.94-3.53,4.08-4.02,10.13,0,14.14,3.61,3.61,10.6,4.1,14.14,0Z"/>
  <path class="cls-1" d="M647.7,260.74c12.39-8.23.85-26.61-11.82-19.2-4.48,2.62-6.61,8.24-8.98,12.57-2.88,5.25-5.75,10.5-8.63,15.75-10.87,19.84-21.74,39.68-32.6,59.52-21.29,38.86-42.34,77.85-63.88,116.56-10.57,19-21.85,37.68-37.41,53.05,4.04-.52,8.08-1.04,12.12-1.56-48.37-22.99-95.64-48.24-141.86-75.28-38.96-22.8-77.97-46.16-114.44-72.82-10.46-7.65-20.87-15.39-31.22-23.19-4.51-3.4-10.95-.46-13.68,3.59-5.15,7.64-10.31,15.29-15.46,22.93-3.25,4.82-.53,10.64,3.59,13.68,38.02,28.08,77.88,53.57,117.36,79.54,54.51,35.84,109.39,71.13,165.24,104.86,6.34,3.83,12.58,8.1,20.32,7.42,7.81-.69,14.32-6.35,20.27-10.98,9.95-7.73,18.64-16.67,25.52-27.27,4.42-6.82,8.74-13.7,13.07-20.58,19.33-30.79,38.17-61.9,56.21-93.47,21.33-37.33,43.27-75.64,57.61-116.34,1.79-5.09-2.04-10.94-6.98-12.3-5.52-1.52-10.5,1.87-12.3,6.98-5.48,15.56-11.76,28.91-19.5,44.53-8.99,18.16-18.63,36-28.54,53.67-18.25,32.56-37.46,64.59-57.18,96.28-5.61,9.02-11.26,18.01-16.98,26.96-1.98,3.1-3.91,6.28-6.15,9.2-3.99,5.19-8.8,9.83-13.78,14.06-2.29,1.94-4.65,3.77-7.09,5.51-1.4,1-4.37,3.91-6.04,3.87-2.4-.05-6.35-3.6-8.36-4.81-2.79-1.69-5.58-3.38-8.37-5.07-7.25-4.4-14.48-8.83-21.7-13.29-13.32-8.22-26.6-16.52-39.83-24.89-27.02-17.08-53.87-34.44-80.61-51.95-44.43-29.09-89.36-57.64-132.09-89.2l3.59,13.68c5.15-7.64,10.31-15.29,15.46-22.93l-13.68,3.59c22.35,16.84,44.8,33.41,68.35,48.54,45.08,28.97,91.19,56.37,138.37,81.79,26.59,14.32,53.53,28,80.8,40.96,4.08,1.94,8.77,1.75,12.12-1.56,25.99-25.69,42-59.73,59.35-91.39,19.34-35.3,38.68-70.6,58.01-105.9,5.43-9.92,10.87-19.84,16.3-29.76,2.72-4.96,5.43-9.92,8.15-14.88,1.28-2.33,2.56-4.67,3.84-7,1.08-1.97,2.35-5.45,3.82-6.96l-4.41,2.57,1.11-.39h-5.32l.8.33-5.98-4.6.44.78-1.37-5.05-.02.8,4.95-8.63-.61.4c-10.67,7.09-.67,24.42,10.09,17.27h0Z"/>
  <path class="cls-1" d="M210.87,378.97c-9.15,17.63-18.31,35.26-27.46,52.89-1.92,3.69-1.89,9.19,1.56,12.12,7.29,6.2,15.03,11.88,23.32,16.68s18.64,11.63,27.9,6.23c7.78-4.53,11.13-15.44,14.97-23.05,4.71-9.34,9.42-18.67,14.14-28.01,5.78-11.46-11.46-21.6-17.27-10.09-3.53,7-7.07,14.01-10.6,21.01-1.77,3.5-3.53,7-5.3,10.5s-4.32,7.32-5.6,11.08c-.66,1.93-2.26,1.91.85,1.22,3.87-.86-.52-1.64-2.08-2.43-3.11-1.58-6.16-3.26-9.15-5.07-6-3.62-11.68-7.68-17.02-12.22l1.56,12.12c9.15-17.63,18.31-35.26,27.46-52.89,5.92-11.41-11.33-21.53-17.27-10.09h0Z"/>
  <path class="cls-1" d="M242.87,357.8c5.76-6.45,11.58-13.22,18.1-18.91l-4.41,2.57,1.04-.43h-5.32c-1.2-.17,1.62.73,2.18,1.04,1.09.62,2.19,1.24,3.28,1.86,2.73,1.55,5.47,3.09,8.2,4.64,2.46,1.39,4.92,2.79,7.38,4.18,1.09.62,2.19,1.24,3.28,1.86.82.46,1.64.93,2.46,1.39,1.31.86,1.16.53-.45-.98l-1.37-5.05c.88-1.89.78-1.76-.3.38-.6,1.13-1.19,2.26-1.79,3.4-.89,1.7-1.79,3.4-2.68,5.09-2.08,3.96-4.17,7.92-6.25,11.89-5.98,11.38,11.27,21.5,17.27,10.09,2.38-4.53,4.76-9.06,7.14-13.59,2.21-4.2,5.33-8.68,6.39-13.36,2.68-11.86-10.37-16.56-18.54-21.19-4.37-2.48-8.75-4.95-13.12-7.43s-8.77-4.93-14.13-3.09c-4.89,1.68-8.57,6.56-12.06,10.18s-7.04,7.47-10.46,11.3c-8.55,9.58,5.55,23.77,14.14,14.14h0Z"/>
  <path class="cls-1" d="M313.87,402.84c2.25-3.02,6.63-8.68,10.48-9.64h-5.32c2.95.52,8.26,5.77,11.06,7.82,2.05,1.5,4.1,2.99,6.15,4.49,1.02.75,2.05,1.5,3.07,2.25.51.37,1.02.75,1.54,1.12,1.22.93,1.04.73-.56-.59v-5.32c-.76,4.75-4.36,9.61-6.55,13.89-5.85,11.44,11.4,21.57,17.27,10.09,3.74-7.31,10.92-16.79,8.36-25.43s-13.36-13.53-19.95-18.34c-7.25-5.29-14.75-12.84-24.32-7.89-7.51,3.89-13.55,10.77-18.51,17.44-3.23,4.34-.71,11.17,3.59,13.68,5.1,2.98,10.45.76,13.68-3.59h0Z"/>
  <path class="cls-1" d="M398.5,462.44l.16.32c.52-4.04,1.04-8.08,1.56-12.12l-.38.35,9.73-2.57-.47-.1,7.34,9.64-.08-.83-1.37,5.05c1.48-2.66,3.63-5.05,5.45-7.48,1.13-1.51,3.15-4.9,4.17-5.37l-5.05,1.37c-2.32-.02,1.27,1.51,2.03,2.03,1.02.7,2.05,1.4,3.07,2.1,2.81,1.93,5.6,3.88,8.38,5.85,5.3,3.76,10.55,7.61,15.75,11.51l-4.6-11.29c-.95,4.26-2.53,8.08-5.41,11.39-3.55,4.07-4,10.14,0,14.14,3.62,3.62,10.58,4.09,14.14,0,5.14-5.9,8.85-12.54,10.56-20.22,1.07-4.79-.85-8.48-4.6-11.29-5.45-4.09-10.95-8.11-16.51-12.05-5.44-3.85-11.64-9.61-18.08-11.54-8.28-2.48-13.27,2.82-17.79,8.84-3.64,4.85-10.73,11.23-10.06,17.79.43,4.23,2.78,8.65,7.34,9.64,4.12.89,7.48.02,10.59-2.82,3.4-3.11,3.53-8.27,1.56-12.12l-.16-.32c-5.86-11.47-23.12-1.36-17.27,10.09h0Z"/>
  <path class="cls-1" d="M506.73,478.12c-70.71-43.59-142.31-85.73-214.74-126.4-11.24-6.31-21.33,10.96-10.09,17.27,72.43,40.66,144.03,82.8,214.74,126.4,10.99,6.77,21.04-10.52,10.09-17.27h0Z"/>
  <path class="cls-1" d="M281.18,332.07c37.65-59.2,74.4-118.96,110.25-179.25,6.59-11.09-10.69-21.16-17.27-10.09-35.85,60.3-72.61,120.06-110.25,179.25-6.93,10.89,10.37,20.94,17.27,10.09h0Z"/>
  <path class="cls-1" d="M394.65,148.38c1.39,2.25-.37,3.09,1.77.12,1.06-1.47,2.25-2.86,3.37-4.28,2.66-3.37,5.32-6.74,7.99-10.11,5.32-6.74,10.65-13.48,15.97-20.21l-12.12,1.56c2.62,1.64,5.24,3.28,7.86,4.92,1.05.66,2.1,1.31,3.15,1.97.79.49,1.57.98,2.36,1.48,1,.57,1.05.65.15.22l-2.93-7.07.03,1.57,1.37-5.05c-4.13,8.27-10.14,16.02-15.47,23.57-5.33,7.56-10.88,14.96-16.64,22.19l12.12-1.56c-4.87-3.44-9.03-7.67-12.77-12.3-3.4-4.2-10.61-3.53-14.14,0-4.16,4.16-3.41,9.93,0,14.14,4.85,6,10.52,10.98,16.82,15.42,3.26,2.3,9.55,1.66,12.12-1.56,9.98-12.52,19.49-25.4,28.31-38.75,4.2-6.35,11.56-14.75,6.89-22.73-1.87-3.19-5.09-4.96-8.12-6.85-3.67-2.3-7.34-4.6-11.01-6.89-3.38-2.12-9.47-1.79-12.12,1.56-7.37,9.33-14.75,18.66-22.12,27.99-6.81,8.62-17.25,19.13-10.11,30.73,6.74,10.94,24.05.9,17.27-10.09h0Z"/>
  <path class="cls-1" d="M400.73,119.25c9.12,9.1,23.34-2.55,16.96-13.45-2.06-3.52-6-6.28-9.03-8.94-3.62-3.18-7.31-6.26-11.05-9.29-5.37-4.33-11.63-3.56-15.71,2.02-4.56,6.25-9.12,12.49-13.68,18.74-4.12,5.64-10.41,11.81-12.57,18.54-2.53,7.92,2.37,14.03,8.31,18.48s12.23,8.91,18.34,13.37c4.37,3.18,11.15.74,13.68-3.59,2.96-5.06.79-10.49-3.59-13.68s-9.17-6.68-13.75-10.02c-.97-.7-1.99-1.7-3.06-2.23-2-.99-1.67-2.85-1.3,1.54.33,3.93.18,2.81,1.51.96.94-1.31,1.9-2.6,2.85-3.9,6.84-9.37,13.68-18.74,20.52-28.11l-15.71,2.02c6.26,5.05,13.15,10.18,18.52,16.2l-2.57-4.41.28,1.04,1.01-7.71-.42.57,5.98-4.6-.69.14,9.73,2.57-.42-.42c-9.12-9.1-23.27,5.04-14.14,14.14h0Z"/>
  <path class="cls-1" d="M540.81,55.17c-6.6-9.8-13.01-19.73-19.2-29.8-.19-.31-2.2-4.15-2.49-4.09l-.44,3.92c.42-.37.82-.76,1.2-1.17,1.47-.66,2.73-1.94,4.26-2.6,3.55-1.54,7.68-1.91,11.4-.92,6.42,1.7,12.02,7.57,12.82,14.3.46,3.89-1.5,5.26-4.42,7.46-5.25,3.94-10.51,7.87-15.76,11.8-4.32,3.23-6.53,8.64-3.59,13.68,2.49,4.25,9.33,6.84,13.68,3.59,7.21-5.4,14.97-10.46,21.74-16.39,6.26-5.49,9.05-13.39,8.2-21.62-1.55-14.97-12.73-28.23-27.35-32.1-7.16-1.9-15.06-1.58-22.04.92-7.38,2.65-15.89,7.86-18.64,15.62-3.27,9.23,4.04,17.6,8.71,25.03s9.65,15.06,14.65,22.48c7.15,10.62,24.49.62,17.27-10.09h0Z"/>
  <path class="cls-1" d="M468.06,61.58l-.76-.33,4.6,5.98.19,1.05-1.37,5.05c.6-1.27.57-1.33-.07-.18,1.08-.73,2.16-1.47,3.24-2.2,1.62-1.1,3.24-2.2,4.86-3.3,3.78-2.57,7.56-5.13,11.34-7.7,7.56-5.13,15.13-10.27,22.69-15.4,10.59-7.19.59-24.52-10.09-17.27s-22.15,15.03-33.22,22.55c-5.01,3.4-11.99,6.67-15.26,11.94-3.39,5.47-2.93,14.21,3.76,17.09,4.96,2.13,10.72,1.48,13.68-3.59,2.46-4.21,1.4-11.54-3.59-13.68h0Z"/>
  <path class="cls-1" d="M484.37,80.03l-.24-1-1.01,7.71c-.99,1.75-2.42,1.68.1,1.15,1.11-.23,2.26-.8,3.32-1.19,2.49-.91,4.96-1.87,7.41-2.88,4.88-2,9.73-4.1,14.48-6.4,9.02-4.36,17.69-9.36,26.04-14.88,10.69-7.07.68-24.4-10.09-17.27s-21.14,12.83-32.45,17.85c-10.1,4.48-30.45,7.02-26.85,22.23,2.96,12.52,22.25,7.22,19.29-5.32h0Z"/>
  <path class="cls-1" d="M482.69,74.94c-10.87-11.62-25.49-20.01-41.19-12.12-12.94,6.51-19.91,21.92-14.42,35.62s21.51,22.91,36,17.68,22.82-21.06,18.89-35.86c-3.3-12.43-22.6-7.16-19.29,5.32,1.13,4.27-1.28,10.21-6.13,11.72-4.58,1.43-9.82-2.33-11.15-6.71s2.05-8.82,6.23-10.46c6.55-2.57,12.69,4.45,16.91,8.96,8.81,9.42,22.93-4.74,14.14-14.14h0Z"/>
  <path class="cls-1" d="M426.28,102.72c-2.11-12.92,1.89-27.53,10.97-37.08,6.58-6.92,19.93-12.41,25.38-1.27,2.37,4.85,9.27,6.17,13.68,3.59,4.95-2.89,5.97-8.81,3.59-13.68-4.28-8.74-13.22-14.41-22.69-15.82-11.45-1.71-21.99,2.53-30.7,9.84-17.09,14.36-22.99,38.44-19.51,59.75.87,5.33,7.49,8.31,12.3,6.98,5.67-1.56,7.86-6.95,6.98-12.3h0Z"/>
  <path class="cls-1" d="M496.34,77.77l-1.84-2.95c-5.76-9.22-22.18-3.41-18.28,7.71,7.71,21.97,7.78,46.55-1.35,68.17-2.1,4.97-1.49,10.71,3.59,13.68,4.19,2.45,11.57,1.42,13.68-3.59,11.22-26.58,12.98-56.17,3.37-83.58l-18.28,7.71,1.84,2.95c6.81,10.89,24.12.86,17.27-10.09h0Z"/>
  <path class="cls-1" d="M575.3,216.36c3.04-5.03,6.11-10.74,11.19-14.01,2.98-1.92,7.38-3.1,9.52.03s1.38,7.16.09,10.38c-1.85,4.64-3.53,6.21-7.72,9.27s-6.51,8.68-3.59,13.68c2.51,4.3,9.3,6.79,13.68,3.59,7.92-5.78,13.15-11.56,16.72-20.79,3.73-9.63,2.4-21.24-4.18-29.31-6.94-8.52-18.8-10.67-28.86-6.85-11.3,4.28-18.1,13.96-24.12,23.92-6.68,11.04,10.61,21.11,17.27,10.09h0Z"/>
  <path class="cls-1" d="M663.18,246.79c-30.92-46.74-78.45-81.46-132.27-97.08-15.3-4.44-31.07-7.16-46.95-8.41-5.39-.43-10,4.9-10,10,0,5.76,4.59,9.57,10,10,50.31,3.97,98.65,26.83,134.47,62.22,10.3,10.17,19.49,21.29,27.48,33.36,7.07,10.69,24.4.68,17.27-10.09h0Z"/>
  <path class="cls-1" d="M663.11,257.12c.62-2.35,1.3-4.71,2.29-6.94.44-1,.96-1.99,1.49-2.95.29-.54,2.52-3.26,1.07-2.44l-5.05,1.37,1.41.17-5.05-1.37c8.5,4.61,16.52,10.43,24.68,15.64,2.02,1.29,4.42,3.49,6.68,4.27l1.67,1.07c-.91-4.9-1.62-5.8-2.14-2.71-1.06,1.8-1.36,4.39-2.2,6.35-.76,1.78-1.68,3.49-2.59,5.19-6.08,11.34,11.18,21.45,17.27,10.09,3.9-7.28,10.02-18.57,7.45-27.1-1.66-5.51-6.5-8.33-11.04-11.23-4.17-2.67-8.35-5.33-12.52-8s-8.35-5.33-12.52-8c-4.98-3.18-10.3-6.07-16.15-3.01-7.88,4.12-11.91,16.25-14.04,24.29-3.31,12.45,15.98,17.77,19.29,5.32h0Z"/>
  <path class="cls-1" d="M682.56,239.53c-.25-5.1.71-9.39,3.34-13.79l-13.68,3.59c9.26,5.22,18.23,10.89,26.93,17.01-.67-5.24-1.35-10.47-2.02-15.71-5.61,5.71-8.5,12.73-8.85,20.69-.57,12.87,19.43,12.84,20,0,.12-2.69,1.11-4.64,2.99-6.55,4.81-4.9,3.21-12.02-2.02-15.71-8.69-6.12-17.67-11.79-26.93-17.01-4.74-2.67-10.87-1.11-13.68,3.59-4.33,7.24-6.49,15.44-6.07,23.88.63,12.81,20.63,12.89,20,0h0Z"/>
  <path class="cls-1" d="M638.29,260.46c13.02,7.41,26.04,14.81,39.06,22.22l9.55,5.43c1.64.93,3.44,2.41,5.21,2.96l1.74.99c-1.03-6.11-1.83-7.79-2.4-5.02-1.87,3.63-3.03,11.34-6.56,13.05l5.05-1.37-1.21-.13,5.05,1.37c-13.45-6.41-26.32-14.51-39.35-21.74-11.27-6.25-21.36,11.02-10.09,17.27,12.68,7.04,25.2,14.77,38.2,21.19,14.9,7.35,24.18-10.91,27.76-22.78,2.02-6.69,1.59-13.34-4.42-17.77-5.64-4.16-12.34-7.26-18.43-10.72l-39.06-22.22c-11.2-6.37-21.29,10.9-10.09,17.27h0Z"/>
  <path class="cls-1" d="M432.27,135.72c55.5,34.72,109.8,71.34,162.75,109.85,3.87,2.82,7.74,5.65,11.6,8.48.6.44,4.12,3.61,4.62,3.45.37-.11-1.77-3.2-1.39-3.36-.27.11-.6,1.64-.75,2.02-3.07,7.34-7.75,13.88-13.29,19.52l9.73-2.57c-34.48-13.52-64.89-36.41-95.46-56.87-32.8-21.96-65.6-43.92-98.41-65.88-10.73-7.18-20.75,10.14-10.09,17.27,33.35,22.33,66.7,44.65,100.05,66.98,31.67,21.2,62.89,43.79,98.6,57.79,3.2,1.26,7.43-.24,9.73-2.57,5.57-5.67,10.52-12.11,14.26-19.14,4.15-7.81,8.59-17.17,2.77-25.3-2.41-3.36-6.2-5.63-9.49-8.05-3.6-2.65-7.21-5.29-10.82-7.92-7.49-5.45-15-10.87-22.54-16.25-29.38-20.95-59.16-41.34-89.32-61.14-17.35-11.39-34.83-22.58-52.43-33.59-10.94-6.84-20.99,10.45-10.09,17.27h0Z"/>
  <path class="cls-1" d="M441.71,196.03h.28c3.3.03,7.14-1.87,8.63-4.95,2.15-4.44,2.05-9.38-1.73-13-4.24-4.06-11-3.73-15.05.42-2.09,2.15-3.58,5.11-5.18,7.62-1.46,2.29-2.92,4.57-4.38,6.86-2.82,4.42-1.06,11.23,3.59,13.68,4.95,2.62,10.67,1.13,13.68-3.59,1.37-2.14,2.74-4.29,4.11-6.43.64-1,1.28-2,1.92-3,.36-.57.73-1.14,1.09-1.72.82-1.27.73-1.14-.27.38l-4.41,2.57.49-.08-9.73-2.57.27.22-2.93-7.07.04.37,1.37-5.05-.14.29,8.63-4.95h-.28c-5.23-.05-10.24,4.63-10,10s4.39,9.95,10,10h0Z"/>
  <path class="cls-1" d="M458.11,207.51c-.83,3.91-1.67,7.83-2.5,11.74-1.09,5.1,1.51,11.05,6.98,12.3,5.03,1.14,11.14-1.51,12.3-6.98.83-3.91,1.67-7.83,2.5-11.74,1.09-5.1-1.51-11.05-6.98-12.3-5.03-1.14-11.14,1.51-12.3,6.98h0Z"/>
  <path class="cls-1" d="M523.79,241.47c-1.71,2.34-3.41,4.69-5.12,7.03-1.44,1.98-1.63,5.45-1.01,7.71s2.43,4.83,4.6,5.98c2.32,1.23,5.13,1.84,7.71,1.01s4.36-2.38,5.98-4.6c1.71-2.34,3.41-4.69,5.12-7.03,1.44-1.98,1.63-5.45,1.01-7.71s-2.43-4.83-4.6-5.98c-2.32-1.23-5.13-1.84-7.71-1.01s-4.36,2.38-5.98,4.6h0Z"/>
  <path class="cls-1" d="M571.07,277.21l1.89-2.25-15.71-12.12c-1.04,2.31-2.09,4.63-3.13,6.94-1.14,2.52-1.77,4.93-1.01,7.71.64,2.32,2.43,4.83,4.6,5.98,2.32,1.23,5.13,1.84,7.71,1.01,2.33-.75,4.93-2.27,5.98-4.6s2.09-4.63,3.13-6.94,1.87-5.05,1.01-7.71c-.68-2.11-1.82-3.83-3.58-5.19-3.65-2.82-9.92-3.05-13.13.78l-1.89,2.25c-1.74,2.08-2.93,4.27-2.93,7.07,0,2.45,1.09,5.38,2.93,7.07s4.41,3.05,7.07,2.93c2.51-.11,5.39-.92,7.07-2.93h0Z"/>
  <path class="cls-1" d="M608.96,306.42c-13.34-13.72-29.53-24.13-45.86-33.91-17.66-10.58-35.37-21.06-53.06-31.59-36.03-21.45-72.06-42.89-108.08-64.34-11.09-6.6-21.16,10.68-10.09,17.27,35.46,21.11,70.92,42.22,106.38,63.33,17.5,10.41,35,20.82,52.49,31.25,15.7,9.36,31.26,18.95,44.09,32.14,8.99,9.24,23.12-4.9,14.14-14.14h0Z"/>
  <path class="cls-1" d="M393.33,185.78c-33.73,56.85-68.74,112.93-105,168.2-7.08,10.79,10.23,20.83,17.27,10.09,36.25-55.27,71.26-111.36,105-168.2,6.58-11.09-10.7-21.17-17.27-10.09h0Z"/>
  <path class="cls-1" d="M478.32,238.98c-31.07,57.59-72.99,108.13-108.93,162.58-7.11,10.77,10.2,20.8,17.27,10.09,35.94-54.45,77.85-104.99,108.93-162.58,6.11-11.33-11.15-21.44-17.27-10.09h0Z"/>
  <path class="cls-1" d="M500.85,250.93c-35.44,55.69-70.88,111.39-106.32,167.08-6.93,10.89,10.37,20.93,17.27,10.09,35.44-55.69,70.88-111.39,106.32-167.08,6.93-10.89-10.37-20.93-17.27-10.09h0Z"/>
  <path class="cls-1" d="M583.57,302.62c-32.85,56.31-67.35,111.65-103.43,165.95-7.14,10.75,10.17,20.78,17.27,10.09,36.09-54.29,70.58-109.64,103.43-165.95,6.5-11.14-10.78-21.22-17.27-10.09h0Z"/>
  <path class="cls-1" d="M348.93,341.56c13.93-12.94,25.78-28.08,35.01-44.7,6.26-11.26-11.01-21.36-17.27-10.09-8.48,15.26-19.1,28.77-31.89,40.65-9.45,8.78,4.72,22.9,14.14,14.14h0Z"/>
  <path class="cls-1" d="M475.78,389.59c9.6-15.85,19.2-31.69,28.8-47.54,6.69-11.04-10.6-21.1-17.27-10.09-9.6,15.85-19.2,31.69-28.8,47.54-6.69,11.04,10.6,21.1,17.27,10.09h0Z"/>
  <path class="cls-1" d="M506.19,323.5c12.87,0,12.89-20,0-20s-12.89,20,0,20h0Z"/>
  <path class="cls-1" d="M395.96,272.63c12.87,0,12.89-20,0-20s-12.89,20,0,20h0Z"/>
</svg>