<?xml version="1.0" encoding="UTF-8"?>
<svg id="Layer_1" data-name="Layer 1" xmlns="http://www.w3.org/2000/svg" viewBox="0 0 576.87 743.22">
  <defs>
    <style>
      .cls-1 {
        fill: #83358c;
      }
    </style>
  </defs>
  <path class="cls-1" d="M304.4,202.17c-20.12,29.18-32.63,62.94-37.06,98.06-2.31,18.27-1.7,36.33.06,54.62,1.78,18.61,3.27,37.29-3.75,55.06s-20.24,33.01-32.73,47.44c-6.29,7.27,4.28,17.92,10.61,10.61,11.32-13.08,22.85-26.44,31.01-41.8,9.03-16.98,12.22-35.06,11.25-54.18-.96-18.88-3.82-37.43-2.82-56.39.93-17.59,4.25-34.98,9.62-51.76,6.18-19.28,15.27-37.42,26.76-54.08,5.49-7.97-7.5-15.48-12.95-7.57h0Z"/>
  <path class="cls-1" d="M281.96,297.15c-5.67-15.04-11.83-29.99-16.9-45.24-4.78-14.38-4.33-28.85-1.91-43.69,1.04-6.38,2.7-12.95,6.81-18.1s10.2-9.66,15.81-13.32c5.2-3.39,11.29-6.52,17.65-4.9,5.93,1.5,11.04,6.1,15.05,10.53,9.43,10.4,15.7,24.24,20.12,37.42,3.05,9.11,17.54,5.2,14.46-3.99-8.3-24.75-29.73-68.6-62.91-57.85-8.07,2.61-14.85,7.64-21.42,12.84s-12.22,10.84-15.65,18.45-4.63,15.34-5.53,23.39c-1.03,9.2-1.98,18.47-.69,27.69,1.42,10.19,5.16,19.71,8.77,29.28,3.95,10.49,7.91,20.98,11.86,31.47,3.37,8.95,17.88,5.07,14.46-3.99h0Z"/>
  <path class="cls-1" d="M403.27,315.57c12.22-30.18,1.34-67.2-21.69-89.39-12.47-12.02-29.3-13.38-45.71-11.26s-32.3,7.07-46.75,16.07c-8.18,5.09-.66,18.07,7.57,12.95,11.71-7.28,24.32-11.83,37.94-13.83s27.48-2.51,37.47,7.79c18.63,19.22,26.94,48.43,16.72,73.68-1.53,3.78,1.67,8.2,5.24,9.23,4.27,1.22,7.71-1.5,9.23-5.24h0Z"/>
  <path class="cls-1" d="M289.07,379.79c34.45-12.18,67.67,12.45,99.25,22.56,17,5.44,33.64,4.93,49.06-4.67,12-7.47,21.78-18.55,27.62-31.43,5.84-12.88,8.22-26.99,5.55-40.98s-11.33-29.87-26.21-31.85c-16.92-2.26-28,13.74-31.15,28.3-2.59,11.95-1.91,32.86-17.64,35.52-7.84,1.32-16.16-1.47-23.67-3.37-9.27-2.35-18.71-3.91-28.29-4.18-19.5-.55-38.73,3.91-56.25,12.38-8.69,4.2-1.09,17.14,7.57,12.95,13.79-6.67,28.99-10.2,44.3-10.36,7.8-.08,15.55.64,23.17,2.34,6.79,1.51,13.44,3.6,20.33,4.65,14.25,2.18,28.28-.84,36.28-13.86s5.06-28.01,11.43-40.88c2.23-4.51,7.43-10.15,13.06-8.41,5.25,1.62,8.6,8.27,10.45,13.04,4.23,10.92,3.3,22.93-.57,33.8-3.97,11.16-11.65,21.36-21.46,28.02-5.98,4.06-12.81,7.33-20.13,7.79-7.9.5-15.63-1.88-23.01-4.45-33.3-11.58-67.16-34.29-103.68-21.37-9.04,3.2-5.15,17.69,3.99,14.46h0Z"/>
  <path class="cls-1" d="M285.19,284.94c17.31-10.53,34.68-20.96,52.11-31.31l-11.02-8.47c-7.13,19.44-1.69,42.95,13.54,57.1,8.15,7.57,18.55,12.29,29.26,14.94,5.64,1.4,11.41,2.24,17.17,2.88,4.22.47,10.73-.11,14.1,2.93l-1.17-9.09c-7.72,14.01-13.54,28.97-17.22,44.54-2.22,9.39,12.24,13.39,14.46,3.99,3.39-14.37,8.59-28.03,15.71-40.96,1.54-2.8,1.32-6.84-1.17-9.09-7.78-7.02-17.79-6.32-27.54-7.67s-19.9-3.96-28.35-9.48c-15.1-9.86-20.4-29.55-14.32-46.11,2.31-6.3-5.7-11.63-11.02-8.47-17.42,10.34-34.79,20.78-52.11,31.31-8.24,5.01-.71,17.99,7.57,12.95h0Z"/>
  <path class="cls-1" d="M337.29,275.31c5.54-5.71,12.72-5.09,20.65-4.95,8.94.16,17.73,1.73,26.2,4.6,16.56,5.61,30.86,16.73,40.3,31.44,5.19,8.1,18.18.59,12.95-7.57-11.87-18.52-29.71-32.07-50.65-38.79-10.19-3.27-21.09-4.83-31.78-4.68-10.8.15-20.43,1.26-28.27,9.35-6.72,6.94,3.87,17.56,10.61,10.61h0Z"/>
  <path class="cls-1" d="M396.87,403.43c-6.1,33.87-23.06,68.22-56.38,82.33-36.11,15.29-70.96-6.63-99.38-27.71-15.92-11.8-30.85-24.92-45.41-38.34-13.01-11.99-26.57-24.07-37.01-38.45-10.15-13.99-16.75-29.78-16.35-47.28.38-16.9,6.66-33.19,15.73-47.29,22.45-34.93,62.22-53.52,98.37-70.88,8.7-4.18,1.1-17.11-7.57-12.95-36.03,17.3-73.55,35.76-98.25,68.39-23,30.39-31.29,70.7-12.66,105.3,9.24,17.16,23.24,31.34,37.29,44.6,15.69,14.81,31.74,29.3,48.75,42.58,31.08,24.27,69.37,50.7,110.83,39.73,43.89-11.61,68.9-53.84,76.5-96.04,1.7-9.44-12.75-13.49-14.46-3.99h0Z"/>
  <path class="cls-1" d="M226.23,214.22c-33.42-18.52-73.14-27.01-111.1-21.04-32.91,5.17-60.65,25.94-76.42,55.1s-18.13,61.61-8.43,92.24c10.09,31.87,31.79,59.33,59.69,77.55,33.58,21.92,74.94,30.25,114.62,27.48,9.58-.67,9.65-15.67,0-15-31.94,2.23-64.74-2.76-93.4-17.5-27.09-13.93-49.07-36.14-61.7-63.97-11.92-26.27-13.36-56.28-2.62-83.15,10.22-25.56,31.25-47.06,57.87-55.05,37.34-11.21,80.45-2.24,113.9,16.3,8.45,4.68,16.03-8.27,7.57-12.95h0Z"/>
  <path class="cls-1" d="M233.12,474.4c2.36,15.56,4.8,31.23,8.39,46.57,3.15,13.46,8.23,26.34,17.71,36.64s21.52,17.83,33.39,24.42c12.73,7.06,26.49,12.81,40.78,15.76,25.53,5.27,51.86,1.52,72.75-14.72,19.37-15.05,30.82-38.51,26.05-63.12-3.15-16.26-11.79-31.72-18.44-46.77-1.84-4.16-3.68-8.32-5.52-12.49-1.58-3.57-2.9-7.13-5.73-9.94-5.51-5.47-13.32-5.88-17.96.75-5.55,7.93,7.45,15.43,12.95,7.57l-1.34,1.39-3.79,1.02c-1.74.2-.5-1.04-.03.36.29.86,1.04,2.14,1.36,2.86,1.35,2.96,2.63,5.95,3.94,8.92,2.89,6.54,5.78,13.08,8.67,19.62,4.79,10.84,10.64,22.08,11.92,34.02,2.01,18.83-9.53,36.35-24.69,46.54-18.22,12.23-40.31,13.7-61.21,8.36-11.28-2.88-21.98-7.43-32.14-13.08s-20.9-12.31-29.19-20.85c-9.22-9.49-13.04-21.95-15.77-34.59-3.08-14.29-5.45-28.77-7.64-43.22-.6-4-5.66-6.24-9.23-5.24-4.28,1.2-5.85,5.19-5.24,9.23h0Z"/>
  <path class="cls-1" d="M459.51,362.52c20.01,10.84,26.68,31.94,25.81,53.6-.42,10.42-2.48,20.7-5.64,30.63-4.2,13.21-11.46,24.45-20.19,35.14-10.37,12.71-21.62,27.05-37.3,33.35-3.74,1.5-6.42,5.01-5.24,9.23,1,3.56,5.43,6.76,9.23,5.24,16.34-6.57,28.45-18.67,39.58-31.96s21.04-26.34,26.88-42.55c8.07-22.41,11.5-49.5,3.06-72.3-5.32-14.36-15.1-26-28.61-33.32-8.49-4.6-16.07,8.35-7.57,12.95h0Z"/>
  <path class="cls-1" d="M472.54,359.15c20.12-23.57,32.94-57.35,21.28-87.75-11.3-29.46-39.66-51.91-72.18-45.5-16.5,3.25-36.26,10.64-42.83,27.44-1.49,3.8,1.63,8.19,5.24,9.23,4.23,1.21,7.76-1.48,9.23-5.24,2.52-6.45,10.43-9.86,16.42-12.16,8.5-3.26,17.49-6.08,26.7-5.56,14.22.8,26.84,10.42,34.97,21.58,9.76,13.4,13.95,29.75,10.84,46.14-2.89,15.21-10.26,29.49-20.28,41.23-6.24,7.3,4.33,17.96,10.61,10.61h0Z"/>
  <path class="cls-1" d="M434.68,237.41c6.22-7.7,2.93-15.38-.92-23.35-4.45-9.22-8.89-18.44-13.36-27.65-7.21-14.86-14.99-30.1-27.19-41.55-12.64-11.86-28.95-17.79-45.77-20.76-7.86-1.39-17.62-4.01-25.53-2.02s-12.55,8-15.28,15.22c-3.42,9.04,11.08,12.94,14.46,3.99,1.93-5.11,5.58-5.01,10.45-4.44,6.45.76,12.87,1.73,19.2,3.18,12.86,2.94,24.82,8.06,34.12,17.65,8.87,9.15,14.89,20.64,20.48,31.96,3.24,6.56,6.38,13.17,9.57,19.76,1.83,3.79,3.66,7.57,5.49,11.36.75,1.56,1.6,3.1,2.26,4.7.56,1.36.23,2.83,1.43,1.35-2.56,3.17-3.05,7.49,0,10.61,2.6,2.66,8.07,3.14,10.61,0h0Z"/>
  <path class="cls-1" d="M324.56,173.25c6.92-39.71-25.48-78.59-62.18-89.43-19.7-5.81-41.43-4.51-60.34,3.42s-34.43,23-47.21,39.29c-14.81,18.87-29.52,39.18-35.38,62.83-2.32,9.37,12.14,13.37,14.46,3.99,4.54-18.31,15.07-34.04,26.12-49.04s22.24-28.62,37.54-38.02c29.43-18.09,68.28-13.34,92.44,11.26,12.74,12.98,23.33,33.05,20.08,51.72-1.64,9.44,12.81,13.49,14.46,3.99h0Z"/>
  <path class="cls-1" d="M186.85,107.47c-17.2-28.13-44.88-47.79-72.67-64.51C84.18,24.91,51.92,10.63,18.49.29c-5.21-1.61-11.14,3.84-9.23,9.23,11.36,31.87-1.41,65.27-6.68,97.04C0,122.12-1.18,137.63,1.61,153.24s8.47,30.16,14.84,44.37c7.04,15.71,15.36,30.81,24.24,45.54,4.98,8.26,17.95.73,12.95-7.57-15.35-25.46-30.31-52.69-36.71-81.98-6.86-31.42,5.34-62.74,9.92-93.59,2.71-18.27,3.15-36.85-3.14-54.49l-9.23,9.23c31.69,9.8,62.08,23.26,90.58,40.24,26.09,15.54,52.69,33.66,68.83,60.05,5.03,8.22,18.01.7,12.95-7.57h0Z"/>
  <path class="cls-1" d="M25.45,23.95c38.06,54.46,70.36,112.8,96.31,173.97,1.59,3.76,7.06,4.51,10.26,2.69,3.88-2.21,4.26-6.55,2.69-10.26-25.95-61.16-58.25-119.5-96.31-173.97-5.49-7.86-18.5-.37-12.95,7.57h0Z"/>
  <path class="cls-1" d="M110.23,137.04c3.19-11.67,5.74-23.51,8.13-35.36,1.42-7.07,2.77-14.15,4.01-21.25,1.11-6.3,1.18-13.97,3.4-19.95l-3.45,4.48.75-.46-3.79,1.02.88-.02-3.79-1.02.67.51c3.26,2.45,8.35.5,10.26-2.69,2.28-3.81.53-7.84-2.69-10.26s-8.49-1.83-11.39,1.14-2.8,8.03-3.42,11.91c-1.31,8.19-2.76,16.35-4.33,24.5-2.8,14.57-5.81,29.14-9.72,43.46-2.55,9.32,11.92,13.3,14.46,3.99h0Z"/>
  <path class="cls-1" d="M86.21,106.23c-22.14,1.9-44.01-.75-65.04-7.92-9.16-3.12-13.09,11.36-3.99,14.46,22.14,7.55,45.72,10.46,69.03,8.45,9.55-.82,9.63-15.83,0-15h0Z"/>
  <path class="cls-1" d="M112.28,162c-31.41,2.3-62.84,3.99-94.32,4.76-9.64.24-9.67,15.24,0,15,31.49-.77,62.91-2.46,94.32-4.76,9.57-.7,9.65-15.71,0-15h0Z"/>
  <path class="cls-1" d="M171.52,540.61c-4.17,5.67-10.82,9.13-17.12,11.9-7.61,3.34-15.61,5.95-23.6,8.21-16.93,4.78-34.35,7.41-51.94,7.76-.75.01-2.08-.21-2.78.04l-1.18-.02,2.52,1.78c.42-.23.15-5.14.17-5.8.18-4.83.45-9.66.8-14.48.66-8.97,1.59-17.93,2.88-26.84,2.63-18.06,6.36-36.08,11.56-53.58,4.47-15.07,11.8-28.6,26.57-35.66,8.71-4.16,1.1-17.1-7.57-12.95-15.49,7.4-25.65,21.83-31.21,37.59-7.06,20.04-11.13,41.54-14.09,62.54-1.49,10.56-2.64,21.16-3.35,31.8-.36,5.46-.66,10.95-.75,16.42-.07,4.74.96,9.64,5.34,12.28,3.61,2.17,7.95,1.97,12,1.87,5.56-.14,11.11-.49,16.64-1.06,10.5-1.08,20.94-2.82,31.19-5.33,19.99-4.9,44.09-11.55,56.85-28.89,2.42-3.29.52-8.34-2.69-10.26-3.78-2.27-7.87-.55-10.26,2.69h0Z"/>
  <path class="cls-1" d="M210,440.68c-20.58,2.28-25.24,23.98-28.54,40.96-4.5,23.17-8.58,46.76-8.14,70.44s5.93,45.33,16.7,65.98,24.05,40.34,37.4,59.46c15.32,21.94,31.75,43.12,49.13,63.47,3.4,3.98,9.2,2.09,11.78-1.52,29.68-41.46,50.12-89.34,59.56-139.44,1.78-9.43-12.68-13.48-14.46-3.99-9.23,49.01-29.02,95.31-58.05,135.86l11.78-1.52c-27.9-32.68-53.19-67.58-75.37-104.39-10.86-18.02-19.7-36.58-22.36-57.69s-.53-42.08,2.87-62.68c1.82-11.03,3.54-22.32,6.39-33.14,1.45-5.49,4.34-16.03,11.33-16.81,4.03-.45,7.5-3.13,7.5-7.5,0-3.71-3.45-7.95-7.5-7.5h0Z"/>
  <path class="cls-1" d="M493.08,429.61c22.64,18.43,46.51,38.74,51.82,69.08,4.39,25.09,7.54,49.87,17.14,73.66l5.24-9.23c-12.92,2.56-23.84,9.63-34.23,17.39-9.45,7.05-19.17,15.16-31.06,17.45-6.71,1.29-13.91.42-20.66-.17-8.27-.72-16.48-2.08-24.54-4.07-15.7-3.88-30.4-10.26-43.58-19.68-7.87-5.62-15.37,7.38-7.57,12.95,14.12,10.09,30.34,17.04,47.16,21.19,15.27,3.76,32.9,6.87,48.64,4.93,27.5-3.38,43.24-30.27,69.82-35.54,3.66-.73,6.68-5.66,5.24-9.23-4.96-12.31-8.44-24.57-10.89-37.59-1.36-7.25-3.08-14.44-4.23-21.73-.86-5.47-1.3-11.01-2.41-16.44-6.54-31.88-31.2-54.01-55.28-73.6-3.16-2.58-7.5-3.04-10.61,0-2.67,2.61-3.13,8.06,0,10.61h0Z"/>
  <path class="cls-1" d="M456.51,495.44c31.9,26.75,66,50.62,98.46,76.65,3.18,2.55,7.49,3.05,10.61,0,2.65-2.6,3.15-8.08,0-10.61-32.46-26.03-66.56-49.9-98.46-76.65-7.35-6.16-18.02,4.39-10.61,10.61h0Z"/>
  <path class="cls-1" d="M543.32,481.12c-7.63,4.27-16.59,6.97-25.11,9.82-10.44,3.5-21.06,6.86-31.88,8.96-9.47,1.83-5.46,16.3,3.99,14.46,11.26-2.18,22.3-5.71,33.15-9.38,9.19-3.11,18.92-6.16,27.42-10.91s.87-17.67-7.57-12.95h0Z"/>
  <path class="cls-1" d="M491.5,523.79c-5.61,24.68-7.32,51.28-6.97,76.54.13,9.64,15.13,9.67,15,0-.33-23.95,1.12-49.15,6.44-72.56,2.14-9.4-12.32-13.41-14.46-3.99h0Z"/>
  <path class="cls-1" d="M438.1,512.75c2.32,27.5,2.13,55.11-.57,82.57-.4,4.04,3.73,7.5,7.5,7.5,4.39,0,7.1-3.45,7.5-7.5,2.69-27.46,2.88-55.07.57-82.57-.81-9.55-15.81-9.63-15,0h0Z"/>
  <path class="cls-1" d="M239.68,511.02c-18.36,4.87-36.2,11.21-53.61,18.79-3.74,1.63-4.52,7.04-2.69,10.26,2.2,3.86,6.57,4.3,10.26,2.69,16.2-7.05,32.96-12.75,50.03-17.28,9.32-2.47,5.37-16.95-3.99-14.46h0Z"/>
  <path class="cls-1" d="M254.35,550.53c-11.59,6.25-23.22,12.64-35.54,17.37-6.03,2.32-12.17,4.12-18.43,5.68-5.62,1.4-11.21,3.05-15.94,6.5-3.3,2.4-4.84,6.49-2.69,10.26,1.85,3.25,7,5.07,10.26,2.69,4.62-3.36,9.93-4.34,15.37-5.72,6.4-1.63,12.65-3.78,18.76-6.27,12.33-5.02,24.08-11.24,35.78-17.56,8.5-4.58.93-17.54-7.57-12.95h0Z"/>
  <path class="cls-1" d="M247.47,566.78c6.1,24.75,10.17,49.92,11.95,75.35s1.14,50.77,1.12,76.14c0,9.65,14.99,9.67,15,0,.02-26.01.67-52.11-1.26-78.07s-6.09-52.01-12.35-77.41c-2.31-9.37-16.78-5.4-14.46,3.99h0Z"/>
  <path class="cls-1" d="M260.63,602.46c24.09,11.71,37.77,37.26,63.55,46.57,9.1,3.28,13.01-11.21,3.99-14.46-11.67-4.21-20.75-13.11-29.54-21.52-9.28-8.87-18.77-17.87-30.43-23.54-8.65-4.2-16.26,8.73-7.57,12.95h0Z"/>
  <path class="cls-1" d="M187.9,437.81c-20.66,16.27-35.39,39.23-52.74,58.76-19.05,21.44-38.67,42.4-58.04,63.55-6.51,7.11,4.07,17.74,10.61,10.61,19.37-21.15,38.98-42.11,58.04-63.55,17.36-19.52,32.08-42.48,52.74-58.76,3.21-2.53,2.59-7.95,0-10.61-3.11-3.18-7.44-2.49-10.61,0h0Z"/>
  <path class="cls-1" d="M88.43,478.33c11.75,5.28,24.32,4.27,36.88,3.71,13.39-.59,26.81-1.81,39.79-5.25,9.32-2.47,5.37-16.94-3.99-14.46-11.12,2.94-22.43,4.07-33.89,4.62-9.74.47-22.02,2.56-31.22-1.58-3.72-1.67-8.02-1.04-10.26,2.69-1.91,3.19-1,8.6,2.69,10.26h0Z"/>
  <path class="cls-1" d="M138.47,562.03c-2.41-7.23-2.57-15.62-2.65-23.18-.04-3.78.08-7.56.36-11.33.21-2.81,0-7.18,1.58-9.61,5.29-8.11-7.69-15.63-12.95-7.57-4.59,7.04-3.97,18.52-4,26.62-.04,9.38.2,20.1,3.19,29.05,3.04,9.11,17.53,5.21,14.46-3.99h0Z"/>
</svg>