<?xml version="1.0" encoding="UTF-8"?>
<svg id="Layer_1" data-name="Layer 1" xmlns="http://www.w3.org/2000/svg" viewBox="0 0 1054.95 2126.88">
  <defs>
    <style>
      .cls-1 {
        fill: #231f20;
      }
    </style>
  </defs>
  <path class="cls-1" d="M237.69,424.54c12.32-24.56,26.98-47.86,43.75-69.63l-19.94,25.8c22.57-29.14,48.77-55.31,77.9-77.88l-25.8,19.94c28.82-22.21,60.33-40.81,93.83-55.04-10.15,4.28-20.3,8.57-30.46,12.85,31.25-13.18,64.06-22.5,97.67-27.08-11.3,1.52-22.6,3.04-33.89,4.55,28.6-3.81,57.59-4.14,86.21-.39-11.3-1.52-22.6-3.04-33.89-4.55,25.05,3.37,49.57,9.87,72.88,19.66-10.15-4.28-20.3-8.57-30.46-12.85,21.4,9.09,41.52,20.86,59.91,35.07-8.6-6.65-17.2-13.29-25.8-19.94,18.85,14.68,35.65,31.74,50.31,50.59-6.65-8.6-13.29-17.2-19.94-25.8,17.95,23.27,32.53,48.97,44.03,75.99l-12.85-30.46c10.54,25.05,17.47,51.4,21.13,78.32-1.52-11.3-3.04-22.6-4.55-33.89,4.66,35.23,3.76,70.92-.95,106.09,1.52-11.3,3.04-22.6,4.55-33.89-6.19,45.33-18.51,89.65-34.37,132.5-4.54,12.28-9.39,24.44-14.47,36.5l12.85-30.46c-25.81,60.99-57.84,119.21-93.17,175.17-27.27,43.19-56.65,84.99-87.16,125.95-9.54,12.81-19.36,25.44-28.61,38.47-11.53,19.89-17.34,41.34-17.41,64.35.07,23.01,5.87,44.47,17.41,64.35,11.33,19.16,26.58,34.41,45.74,45.74,19.89,11.53,41.34,17.34,64.35,17.41,8.08-.87,16.19-.65,24.25.37-11.3-1.52-22.6-3.04-33.89-4.55,13.67,1.85,26.87,5.95,39.56,11.29l-30.46-12.85c23.5,10.02,45.08,24.05,65.25,39.62-8.6-6.65-17.2-13.29-25.8-19.94,42.32,32.86,78.95,72.78,111.65,115.06-6.65-8.6-13.29-17.2-19.94-25.8,34.73,45.06,65.21,93.48,90.54,144.42,7.08,14.23,13.72,28.66,19.92,43.29-4.28-10.15-8.57-20.3-12.85-30.46,20.77,49.27,35.27,100.82,45.31,153.29,2.97,15.5,5.51,31.08,7.63,46.72-1.52-11.3-3.04-22.6-4.55-33.89,5.95,44.33,8.49,89.24,5.81,133.92-.78,12.99-2.02,25.94-3.75,38.84,1.52-11.3,3.04-22.6,4.55-33.89-4.78,35.08-13.3,69.66-27.01,102.36,4.28-10.15,8.57-20.3,12.85-30.46-10.11,23.86-22.95,46.46-38.72,67.05,6.65-8.6,13.29-17.2,19.94-25.8-14.36,18.57-30.97,35.28-49.49,49.71l25.8-19.94c-16.2,12.49-33.76,23.03-52.58,31.08,10.15-4.28,20.3-8.57,30.46-12.85-18.32,7.73-37.52,12.98-57.21,15.71,11.3-1.52,22.6-3.04,33.89-4.55-22.46,3.01-45.17,2.72-67.61-.25l33.89,4.55c-29.76-4.06-58.67-12.69-86.32-24.31,10.15,4.28,20.3,8.57,30.46,12.85-39.8-16.86-76.84-39.7-111.03-66.05l25.8,19.94c-32.46-25.12-62.46-53.43-89.36-84.42-7.22-8.32-14.2-16.83-20.94-25.54,6.65,8.6,13.29,17.2,19.94,25.8-21.24-27.54-40.43-57.14-54.05-89.24,4.28,10.15,8.57,20.3,12.85,30.46-2.4-5.71-4.61-11.49-6.58-17.36-3.94-16.59-11.55-31.05-22.82-43.36-8.99-13.88-20.91-24.83-35.77-32.84-14.63-9.32-30.44-14.36-47.4-15.13-16.95-3.8-33.89-3.04-50.84,2.28-10.15,4.28-20.3,8.57-30.46,12.85-19.16,11.33-34.41,26.58-45.74,45.74-4.28,10.15-8.57,20.3-12.85,30.46-6.07,22.6-6.07,45.19,0,67.79,10.59,31.62,24.7,62.85,42.01,91.44,6.81,11.25,14.14,22.18,21.87,32.81,14.4,19.82,29.4,39.28,45.22,58,19.24,22.77,40.16,44.13,62.45,63.91,30.6,27.15,63.32,52.56,97.74,74.7,34.51,22.19,71.35,38.81,109.46,53.97,13.85,5.51,28.03,10.24,42.46,13.99,24.4,6.34,49.57,9.33,74.55,12.28,14.04,1.65,28.22,2.23,42.34,1.57,25.01-1.18,50.25-4.49,74.66-10.09,24.47-5.61,47.46-16,70.34-26.09,13.9-6.13,27.16-13.66,39.61-22.35,21.7-15.14,43.21-31.59,61.99-50.37,18.96-18.96,35.51-40.79,50.85-62.63,9.29-13.23,17.44-27.25,24.48-41.8,8.15-16.87,15.26-34.3,22.19-51.68,2.95-7.39,5.64-14.88,8.09-22.45,4.98-15.4,8.95-31.13,12.05-47.02,5.17-26.48,8.64-53.38,11.21-80.22,3.08-32.1,3.25-64.45,1.3-96.62-2.51-41.31-8.09-82.6-15.21-123.35-4.54-26.01-10.24-51.82-17.09-77.32-7.53-28.02-16.64-55.55-27.63-82.41-18.38-44.89-38.14-88.74-62.56-130.68-19.23-33.03-40.61-64.78-63.91-95.07-28.29-36.77-56.95-72.86-90.43-105.09-11.61-11.17-23.66-21.89-36.26-31.93-19.92-15.88-40.09-32.05-61.82-45.5-20.5-12.7-42.3-21.45-64.59-30.75-10.94-4.57-22.22-8.31-33.91-10.4-20.18-3.62-42.77-8.06-63.79-5.81,36.7,63.95,73.4,127.9,110.09,191.85,16.59-23.35,34.33-45.87,51.1-69.08,28.21-39.03,55.13-79.01,80.06-120.22,14.59-24.11,28.49-48.63,41.52-73.62,18.6-35.68,34.55-72.35,50.1-109.45,11.4-27.19,21.5-54.94,29.77-83.24,11.29-38.63,17.35-77.46,22.64-117.33,3.68-27.76,5.12-55.82,3.21-83.79-.47-6.87-1.15-13.72-2.02-20.55-2.25-17.68-4.27-35.52-7.6-53.06-2.56-13.49-6-26.81-10.35-39.83-7.92-23.68-17.94-46.78-28.87-69.21-6.38-13.1-13.54-25.83-21.52-38.02-13.22-20.2-28.18-39.45-43.89-57.74-8.5-9.9-17.66-19.23-27.44-27.87-17.26-15.25-35.65-29.49-54.82-42.27-10.21-6.81-20.9-12.91-31.95-18.25-15.22-7.35-30.98-13.69-46.63-20.02-5.45-2.2-10.97-4.23-16.55-6.08-11.64-3.86-23.53-6.93-35.57-9.25C543.19,3.33,507.32-1.21,472.01.29c-23.42.99-46.82,4.57-69.94,8.01-12.48,1.85-24.86,4.37-37.08,7.5s-24.66,6.99-36.7,11.37c-22.2,8.09-44.05,17.36-65.4,27.48-24.16,11.45-47.2,25.23-68.78,41.01-30.43,22.24-60.14,45.63-85.99,73.15-9.48,10.1-18.44,20.66-26.94,31.6-15.06,19.38-30.26,38.52-43.34,59.3-7.37,11.7-14.14,23.77-20.34,36.13-9.32,14.63-14.36,30.44-15.13,47.4-3.8,16.95-3.04,33.89,2.28,50.84,3.94,16.59,11.55,31.05,22.82,43.36,8.99,13.88,20.91,24.83,35.77,32.84,10.15,4.28,20.3,8.57,30.46,12.85,22.6,6.07,45.19,6.07,67.79,0,10.15-4.28,20.3-8.57,30.46-12.85,19.16-11.33,34.41-26.58,45.74-45.74h0Z"/>
</svg>