<?xml version="1.0" encoding="UTF-8"?>
<svg id="Layer_1" data-name="Layer 1" xmlns="http://www.w3.org/2000/svg" viewBox="0 0 248.28 260.05">
  <defs>
    <style>
      .cls-1 {
        fill: #fff;
      }
    </style>
  </defs>
  <path class="cls-1" d="M220.32,111.87c-7.66,3-15.15,4.95-22.46,5.35-7.85.43-16.51-2.04-24.12.25-11.83,3.55-14.37,14.65-14.33,25.53.03,8.86.07,17.72.1,26.57.03,7.74,6.86,15.5,15,15,5.59-.34,11.29-.58,16.87.07,1.14.13.3-.06,2.12.37,1.43.34,2.86.65,4.27,1.07.31.09,3.63,1.22,1.92.51.89.37,1.76.84,2.61,1.31,1.07.59,2.1,1.24,3.11,1.93.85.59.81.55-.13-.13l1.09.97c.84.88,1.73,1.69,2.52,2.61,1.42,1.66-1.17-2.48.62,1.02.43.85.97,1.64,1.35,2.52-1.02-2.35,0,.63.14,1.13.43,1.49.27-1.74.11.92-.02.42-.45,3.99-.05,2.13.36-1.65-2.27,5.1-.76,2.29-.56,1.03-1.14,2.03-1.78,3.02-1.22,1.9,2.19-2.03-.7.86-.67.67-1.34,1.34-2.01,2.01-2.91,2.91,1.03-.53-.89.73-1,.65-2.03,1.22-3.05,1.82-2.36,1.38.72-.09-1.12.45-1.37.4-2.71.81-4.12,1.1-.39.08-2.56.27-1.06.15-1.42.11-2.84.12-4.26.09-.5-.01-3.78-.19-1.98,0-5.42-.57-10.5-2.5-14.41-4.44-7.26-3.59-16.24-1.95-20.52,5.38-3.88,6.63-1.91,16.92,5.38,20.52,15.24,7.54,33.19,11.57,49.77,5.86,14.68-5.06,27.53-17.61,30.64-33.18,3.44-17.24-4.6-32.83-18.43-42.88-13.49-9.81-31.09-11.2-47.22-10.2l15,15c-.03-6.96-.05-13.92-.08-20.88,0-1.9-.01-3.8-.02-5.69,0-1,.44-4.22,0-5.18l-7.14,8.37c-1.7.23-1.98.35-.83.36.68.61,3.7.39,4.63.47,14.18,1.26,28.98-1.04,42.21-6.23,7.54-2.95,12.78-10.05,10.48-18.45-1.97-7.19-10.87-13.45-18.45-10.48h0Z"/>
  <path class="cls-1" d="M25.43,255.69c27.41-34.77,54.52-69.78,82.36-104.21,24.78-30.65,50.75-60.64,80.61-86.49,8.67-7.51,15.54-12.98,24.38-19.27,9.06-6.45,18.46-12.4,28.15-17.85,7.06-3.97,9.42-13.61,5.38-20.52-4.16-7.1-13.44-9.37-20.52-5.38C154.32,42.17,103.69,108.29,53.83,171.54c-16.54,20.98-33.07,41.96-49.61,62.94-5.01,6.36-6.2,15.01,0,21.21,5.21,5.21,16.17,6.4,21.21,0h0Z"/>
</svg>