<?xml version="1.0" encoding="UTF-8"?>
<svg id="Layer_1" data-name="Layer 1" xmlns="http://www.w3.org/2000/svg" viewBox="0 0 523.14 135.84">
  <defs>
    <style>
      .cls-1 {
        fill: #fff;
      }
    </style>
  </defs>
  <g>
    <path class="cls-1" d="M191.55,93.55l-2.18-24.35-1.13-12.66c-.28-3.07-1.77-6.65,1.7-7.83,5.39-1.83,13.42,0,16.22,5.22,1.21,2.25,1.73,5.55-.09,7.65-1.62,1.87-4.8,2.39-6.63.66-3.95-3.73-11.23,1.22-7.85,6.06,5.2,7.44,10.39,14.89,15.59,22.33,3.66,5.24,12.33.25,8.63-5.05-5.2-7.44-10.39-14.89-15.59-22.33l-7.85,6.06c7.22,6.81,19.47,4.26,23.51-4.83,4.62-10.39-2.82-21.56-12.78-24.95-8.93-3.03-24.77-1.66-25.31,10.44-.3,6.6,1.09,13.62,1.68,20.2.7,7.79,1.4,15.58,2.09,23.37.57,6.36,10.57,6.42,10,0h0Z"/>
    <path class="cls-1" d="M237.81,65.57c.75-2.87,4.78-3.01,7.09-1.86,4.36,2.17,4.66,8.55,4.42,12.73-.37,6.65-2.26,19.16,8.3,18.68,6.41-.29,6.44-10.29,0-10,1.08.84,1.39.72.95-.37-.04-.56-.04-1.13,0-1.69.03-1.25.34-2.5.49-3.74.37-3.12.42-6.15,0-9.26-.75-5.41-3.1-10.96-7.76-14.13-7.87-5.35-20.51-2.98-23.12,6.98-1.63,6.23,8.01,8.89,9.64,2.66h0Z"/>
    <path class="cls-1" d="M254.8,68.27c-6.75-3.47-15.33-5.52-22.35-1.48-5.47,3.15-8.7,9.82-7.54,16.06,1.27,6.88,7.89,10.72,14.58,9.76,8.32-1.18,13.02-8.16,16.65-15.04,3-5.69-5.63-10.75-8.63-5.05-1.69,3.21-3.51,7.28-6.74,9.24-2.01,1.22-5.64,1.89-6.11-1.15-.36-2.32,1.45-4.56,3.42-5.42,3.75-1.64,8.27-.04,11.67,1.71,5.71,2.94,10.78-5.68,5.05-8.63h0Z"/>
    <path class="cls-1" d="M275.99,38.51c-.43,8.41-.85,16.82-1.28,25.24-.38,7.6-1.52,15.58-.76,23.17.6,6.01,2.96,11.74,8.45,14.8,5.09,2.83,10.79,2.24,15.14-1.52,4.87-4.22-2.22-11.27-7.07-7.07-3.57,3.09-6.32-4.67-6.56-6.88-.51-4.83.17-9.9.41-14.73.56-11,1.11-22,1.67-33,.33-6.43-9.68-6.41-10,0h0Z"/>
    <path class="cls-1" d="M272.29,57.32l-1.27-.07c-5.63-.3-6.8,8.51-1.33,9.82,6.9,1.66,13.93,2.39,21.02,2.09,6.41-.27,6.45-10.28,0-10s-12.29-.27-18.36-1.73l-1.33,9.82,1.27.07c6.43.34,6.41-9.66,0-10h0Z"/>
    <path class="cls-1" d="M318.3,80.14c6.74.1,15.38,1.69,21.81-.74,5.46-2.06,7.85-8.22,5.06-13.39-5.79-10.72-22.97-10.68-31.94-4.58-9.77,6.64-13.01,21.12-4.55,30.18,10.31,11.04,26.03,7.29,38.46,2.82,6.01-2.17,3.42-11.83-2.66-9.64-7.36,2.65-16.08,6.19-23.85,3.08-6.4-2.56-8.94-9.3-4.89-15.13,3.68-5.31,12-6.87,17.79-4.28,1.18.53,2.78,2.17,2.81,2.12.2-.28-4.42-.25-4.8-.25-4.41-.05-8.82-.12-13.23-.19-6.44-.09-6.44,9.91,0,10h0Z"/>
  </g>
  <path class="cls-1" d="M512.53,16.21c1.14,19.43.65,38.92-1.61,58.26-1.9,16.18-4.04,33.93-21.64,39.88-7.87,2.66-16.32,3.54-24.51,4.61-9.64,1.26-19.3,2.31-28.97,3.19-19.32,1.75-38.71,2.8-58.11,3.31-78.33,2.06-156.52-4.55-234.69-8.42-38.92-1.93-77.75-2.64-116.71-2.41-3.17.02-7.77.32-9.62-2.84-2.05-3.51-1.47-9.84-1.84-13.77-.92-9.93-1.85-19.85-2.77-29.78-.87-9.36-2.86-19.38-1.94-28.79.79-8,6.17-13.47,13.5-16.18,16.67-6.17,35.54,1.69,52.74,1.12,19.02-.64,37.58-5.84,56.33-8.67,38.57-5.83,77.77-5.96,116.69-5.62,79.52.71,159.04,2.36,238.53,4.73,9.95.3,19.89.61,29.84.93,6.44.21,6.43-9.79,0-10C433.21,3.04,348.64,1.2,264.05.26c-41.05-.46-82.3-.92-123.11,4.31-20.3,2.6-40.35,8.26-60.78,9.63-18.34,1.23-37.08-6.11-55.17-1.77-6.98,1.68-13.9,5.19-18.56,10.75C.79,29.91-.42,38.33.11,46.87c1.28,20.49,3.28,41.22,5.7,61.6.93,7.86,4.66,14,12.87,15.59,8.89,1.72,18.75.37,27.76.34,20.8-.07,41.61.39,62.4,1.15,82.51,3.01,164.86,10.86,247.48,10.26,40.62-.3,81.45-2.48,121.63-8.68,16.1-2.48,30.77-8.36,37.27-24.42,3.25-8.04,4.26-16.8,5.34-25.34,1.26-9.97,2.06-20,2.4-30.05.35-10.37.18-20.75-.43-31.11-.37-6.4-10.38-6.44-10,0h0Z"/>
</svg>