<?xml version="1.0" encoding="UTF-8"?>
<svg id="Layer_1" data-name="Layer 1" xmlns="http://www.w3.org/2000/svg" viewBox="0 0 788.45 749.51">
  <defs>
    <style>
      .cls-1 {
        fill: #fff;
      }
    </style>
  </defs>
  <path class="cls-1" d="M37.47,719.46c-15.8-7.54-20.68-25.69-22.83-41.73-3.03-22.68-3.34-46-3.99-68.84-1.38-48.31-.37-96.66,1.28-144.95,3.32-97.2,9.31-194.56,3.71-291.79-1.23-21.41-3.8-42.73-4.83-64.14-.83-17.31-.57-35.21,4.88-51.84,5.53-16.89,17.43-30.04,34.37-35.97,9.89-3.46,20.32-4.93,30.69-6.02,11.81-1.24,23.65-2.39,35.49-3.24,24.52-1.76,48.71-.93,73.11,1.97,23.9,2.84,47.7,6.24,71.67,8.43,48.66,4.46,97.53,5.99,146.37,6.32,97.9.66,195.85-3.53,293.7,1.11,20.02.95,44.87-.19,60.6,14.49,12.28,11.46,15.79,28.92,16.54,45.04.92,19.8-1.84,39.64-3.33,59.35-1.86,24.65-3.23,49.34-4.22,74.05-3.96,98.27-2.05,196.64-2.3,294.95-.13,48.82-.28,97.81-2.99,146.57-1.14,20.64-5.6,39.97-21.81,54-14.39,12.44-33.79,18.47-52.48,20.05-23.76,2-47.47-1.72-71.1-3.69-24.14-2.02-48.39-1.84-72.58-.73-49.24,2.25-98.22,7.51-147.58,6.47-48.89-1.03-97.73-5.17-146.51-8.37-49.82-3.26-99.63-6.52-149.45-9.78-23.91-1.57-47.82-3.13-71.73-4.7-6.43-.42-6.4,9.58,0,10,101.87,6.67,203.73,13.6,305.62,19.99,25.26,1.58,50.56,2.91,75.88,3.04,24.97.13,49.89-1.24,74.8-2.93,25.53-1.74,51.07-3.73,76.66-4.35,24.85-.6,49.41.74,74.13,3.2,40.09,3.99,87.96,5.87,117.49-27.07,14.24-15.89,17.72-36.23,18.76-56.87,1.25-24.81,1.8-49.68,2.24-74.52,1.8-101.64-.76-203.3,1.2-304.94.96-50.1,3.03-100.19,7.25-150.13,2.79-33.02,8.33-77.44-22.49-99.84-17.44-12.68-41.03-12.22-61.6-13.21-25.59-1.23-51.2-1.85-76.81-2.11-49.96-.5-99.92.37-149.88.8-50.54.44-101.1.44-151.6-1.91-24.88-1.16-49.74-2.88-74.52-5.4S199.17,3.58,174.01,1.28C149.07-1.01,124.34.03,99.45,2.35c-20.77,1.93-43.19,2.69-62.08,12.5C3.63,32.39-.77,73.3.78,107.29c.99,21.65,3.62,43.21,4.86,64.86,1.46,25.39,2.13,50.82,2.26,76.25.26,49.65-1.52,99.28-3.45,148.89C2.49,447.57.37,497.87.04,548.2c-.16,24.8.12,49.6,1.07,74.38.85,22.05.82,45.05,5.43,66.72,3.34,15.7,10.71,31.55,25.89,38.79,5.78,2.76,10.86-5.86,5.05-8.63h0Z"/>
  <g>
    <path class="cls-1" d="M78.24,157.29l.48.09c2.23.43,4.44-.29,5.65-2.3,2.06-3.42.52-8.25-3.57-9.17-5.55-1.26-7.7,4.41-8.2,8.73-1.58,13.61-2.92,27.24-4.38,40.86-.28,2.6,2.52,5.13,5,5,9.51-.48,18.73.42,27.95,2.82,6.23,1.62,8.89-8.02,2.66-9.64-10.01-2.6-20.27-3.7-30.61-3.17l5,5c.75-6.97,1.49-13.94,2.24-20.91.34-3.17.68-6.34,1.02-9.5.2-1.9.41-3.8.61-5.7.06-.58.59-4.75-.1-4.34l-3.85.5.58.18-2.99-2.3v-3.4c1.89-.77,3.77-1.53,5.65-2.3l-.48-.09c-6.29-1.21-8.98,8.43-2.66,9.64h0Z"/>
    <path class="cls-1" d="M86.42,159.37c7.43-2.64,14.79-2.86,22.33-.55,6.17,1.89,8.8-7.76,2.66-9.64-9.1-2.79-18.67-2.64-27.65.55-6.02,2.14-3.43,11.81,2.66,9.64h0Z"/>
    <path class="cls-1" d="M83.36,180.84c5.29-.78,10.64-.83,15.96-.43,6.42.48,6.39-9.52,0-10s-12.4-.13-18.61.79c-2.69.39-4.12,3.77-3.49,6.15.76,2.87,3.49,3.88,6.15,3.49h-.01Z"/>
    <path class="cls-1" d="M114.6,169.11c.19,10.21.38,20.41.56,30.62h10c-.78-9.18-2.3-23.61,8.6-27.58,4.48-1.63,8.16.77,9.4,5.24,1.58,5.69-1.21,11.78-3.45,16.89-2.55,5.84,6.06,10.94,8.63,5.05,3.46-7.91,7.02-16.59,4.24-25.28-2.33-7.26-8.48-12.64-16.34-12.45-7.06.17-13.89,4.79-17.47,10.73-4.94,8.19-4.4,18.27-3.62,27.41.54,6.31,10.12,6.53,10,0-.19-10.21-.38-20.41-.56-30.62-.12-6.43-10.12-6.45-10,0h0Z"/>
    <path class="cls-1" d="M155.12,169.08c.05,11.16.58,22.44.1,33.59-.17,4-.91,8.21-5.05,9.79-3.35,1.28-6.88.46-9.26-2.16-4.35-4.76-11.4,2.32-7.07,7.07,7.35,8.05,21.82,7.42,27.98-1.85,3.89-5.84,3.44-13.21,3.41-19.91-.04-8.84-.07-17.69-.11-26.53-.03-6.43-10.03-6.45-10,0h0Z"/>
    <path class="cls-1" d="M164.13,152.77l-1.18-1.81c-.71-1.09-1.71-1.95-2.99-2.3-.66-.21-1.33-.24-1.99-.09-.67.03-1.29.23-1.86.59-1.07.69-2.01,1.71-2.3,2.99s-.23,2.72.5,3.85l1.18,1.81c.71,1.09,1.71,1.95,2.99,2.3.66.21,1.33.24,1.99.09.67-.03,1.29-.23,1.86-.59,1.07-.69,2.01-1.71,2.3-2.99s.23-2.72-.5-3.85h0Z"/>
    <path class="cls-1" d="M192.29,161.88c-10.41-7.74-23.85.14-26.75,11.55s3.81,24.27,15.19,27.61c10.46,3.07,22.97-3.18,25.94-13.88,3.25-11.68-5.56-22.86-17-24.35-6.36-.83-6.3,9.18,0,10,5.4.7,8.92,7.38,7.13,12.3s-8.38,7.89-13.42,6.29c-5.37-1.71-8.94-7.71-8.55-13.23.45-6.35,6.4-12.12,12.41-7.65,5.17,3.84,10.16-4.83,5.05-8.63h0Z"/>
    <path class="cls-1" d="M221.06,164.53c-1.7-7.92-12.92-4.05-11.11,3.75,1.07,4.61,3.59,9.26,5.32,13.67,1.95,4.96,3.9,9.91,5.86,14.87,2.33,5.92,12.01,3.34,9.64-2.66-1.95-4.96-3.9-9.91-5.86-14.87-.92-2.33-1.84-4.67-2.76-7-.46-1.17-.92-2.33-1.38-3.5-.2-.51-.88-3.32-1.13-2.11l-2.3,2.99.63-.29-3.85.5.66.23-3.49-3.49.12.56c1.35,6.29,10.99,3.63,9.64-2.66h.01Z"/>
    <path class="cls-1" d="M232.66,165.86c-3.65,9.13-7.3,18.26-10.95,27.39-2.58,6.46-5.27,16.03-12.88,18.03-6.22,1.64-3.58,11.29,2.66,9.64,9.15-2.41,13.9-10.51,17.32-18.71,4.66-11.16,9-22.47,13.49-33.7,2.39-5.98-7.28-8.57-9.64-2.66h0Z"/>
  </g>
  <g>
    <path class="cls-1" d="M266.2,171.84c5.28,8.65,11.53,16.61,18.7,23.76,4.56,4.55,11.63-2.52,7.07-7.07-6.59-6.58-12.29-13.79-17.14-21.74-3.35-5.49-12-.47-8.63,5.05h0Z"/>
    <path class="cls-1" d="M303.06,166.45c-6.08,9.13-12.17,18.27-18.25,27.4-4.3,6.46-9.77,17.99-18.85,17.72-6.44-.19-6.43,9.81,0,10,10.68.32,17.71-8.13,23.19-16.23,7.6-11.23,15.03-22.57,22.54-33.85,3.58-5.37-5.08-10.38-8.63-5.05h0Z"/>
    <path class="cls-1" d="M330.36,163.12c-11.59-3.02-23.59,4.65-24.63,16.83-.9,10.57,6.31,21.23,17.27,22.26s21.33-6.9,22.49-17.62c1.31-12.14-9.64-23.04-21.64-22.41-6.4.34-6.44,10.34,0,10,6.03-.32,12.2,4.58,11.78,11.03-.35,5.38-6.27,9.43-11.39,9.09-12.8-.84-10.51-23.18,3.46-19.54,6.23,1.62,8.89-8.02,2.66-9.64h0Z"/>
    <path class="cls-1" d="M345.55,165.97c-.13,8.49-4.47,16.45-2.01,25.01,2.05,7.1,8.35,12.11,15.91,10.99,17.04-2.51,22.43-24.58,18.52-38.67-1.72-6.19-11.37-3.56-9.64,2.66,2.2,7.94.59,24.68-10.21,26.1-4.83.64-5.64-5.19-5.38-8.78.43-5.87,2.71-11.36,2.8-17.31.1-6.44-9.9-6.44-10,0h.01Z"/>
    <path class="cls-1" d="M384.7,167.57c-.62,10.79-1.24,21.59-1.87,32.38-.38,6.53,9.29,6.25,10,0,1.23-10.76,4.03-28.51,18.43-27.91,6.43.27,6.42-9.73,0-10-8.5-.35-15.96,4.32-20.78,11.12-5.51,7.77-6.6,17.6-7.65,26.8h10c.62-10.79,1.24-21.59,1.87-32.38.37-6.43-9.63-6.41-10,0h0Z"/>
  </g>
  <g>
    <path class="cls-1" d="M459.22,158.19v43.66c0,6.43,10,6.45,10,0v-43.66c0-6.43-10-6.45-10,0h0Z"/>
    <path class="cls-1" d="M450.19,161.64h31.19c6.43,0,6.45-10,0-10h-31.19c-6.43,0-6.45,10,0,10h0Z"/>
    <path class="cls-1" d="M488.67,170.98c-.44-1.98,2.79-1.48,3.43-1.27,1.26.42,2.32,1.73,3.09,2.72,1.82,2.37,2.8,5.31,3.3,8.23,1.02,5.95.05,12.23-.86,18.12-.98,6.3,8.66,9.01,9.64,2.66,1.88-12.09,3.76-27.04-5.54-36.79-3.92-4.11-9.73-6.56-15.31-4.57s-8.66,7.77-7.39,13.56c1.38,6.28,11.02,3.62,9.64-2.66h0Z"/>
    <path class="cls-1" d="M502.73,178.82c-6.22-4.19-14.68-5.93-21.22-1.42-6.02,4.15-8.58,12.47-4.19,18.71,3.68,5.21,10.99,6.93,16.91,5.06,7.46-2.35,11.65-9.62,14.06-16.56,2.12-6.09-7.54-8.71-9.64-2.66-1.48,4.25-6.27,13.13-12.2,9.24-2.53-1.66-1.11-4.61,1.19-5.84,3.36-1.8,7.23.21,10.04,2.11,5.35,3.61,10.36-5.05,5.05-8.63h0Z"/>
    <path class="cls-1" d="M526.46,150.42c-.11,8.32-.21,16.64-.32,24.97-.09,7.34-.97,15.13.07,22.41.76,5.31,4.15,10.43,9.96,10.71,5.39.26,9.33-3.12,9.84-8.41.62-6.4-9.38-6.36-10,0,1.17-1.23,1.42-1.74.74-1.52-.47-.92-.73-1.89-.78-2.93-.19-1.57-.04-3.33-.03-4.9.05-4.48.11-8.96.17-13.44.11-8.96.23-17.93.34-26.89.08-6.44-9.92-6.44-10,0h.01Z"/>
    <path class="cls-1" d="M524.63,173.25c4.64-1.07,9.09-.2,13.12,2.29,5.49,3.39,10.52-5.26,5.05-8.63-6.31-3.89-13.63-4.96-20.83-3.29-6.27,1.45-3.61,11.09,2.66,9.64h0Z"/>
    <path class="cls-1" d="M552.85,150.4c-.51,14.94-.45,30.35,1.79,45.16.82,5.39,4.26,9.64,10.03,9.92s10.14-3.48,13.71-7.68c4.15-4.88-2.89-11.98-7.07-7.07-1.16,1.36-2.53,3.41-4.2,4.2-2.76,1.31-2.54-.24-2.86-2.67-.57-4.4-.82-8.87-1.09-13.29-.56-9.51-.64-19.04-.31-28.56.22-6.44-9.78-6.43-10,0h0Z"/>
    <path class="cls-1" d="M552.63,168.28l.41.35,1.46,3.54v-.3c-.23.84-.46,1.68-.69,2.52-.31.66-1.21.53-1.16.95.02.19,2.74.72,2.92.77,2.27.6,4.54,1.19,6.81,1.79,6.23,1.64,8.89-8.01,2.66-9.64-2.59-.68-5.19-1.36-7.78-2.05s-5.11-1.43-7.84-.39c-1.97.75-3.72,2.12-4.49,4.12-1,2.58.01,5.8,2.65,6.97,2.47,1.09,5.37.72,6.84-1.79,1.24-2.13.69-5.74-1.79-6.84h0Z"/>
    <path class="cls-1" d="M596.73,164.39c-11.63-7.77-20.63,11.43-21.53,20.2-1.13,11.01,5.98,23.2,18.04,23.31,10.61.09,20.21-9.04,21.11-19.5,1.03-11.91-7.52-22.6-17.94-27.32-5.82-2.64-10.91,5.98-5.05,8.63s10.88,6.91,12.57,13.13c1.52,5.61-.81,11.2-6.06,13.88-5.54,2.82-10.85-.25-12.4-6.08-.84-3.16-.37-6.45.69-9.52.31-.88,3.9-9.19,5.53-8.1,5.37,3.59,10.38-5.07,5.05-8.63h0Z"/>
    <path class="cls-1" d="M649.5,165.08c-3.77-4.89-9.34-6.76-15.36-4.96s-9.5,6.97-11.61,12.42c-4.24,10.96-5.84,27.82,6.43,34.28,11.6,6.1,25.12-1.96,28.2-13.89,3.53-13.65-4.68-25.63-15.1-33.51-5.13-3.88-10.12,4.8-5.05,8.63,5.66,4.28,10.78,10.51,10.97,17.92.17,6.58-4.16,13.59-11.49,12.83-8.06-.84-7.59-10.58-6.35-16.47.7-3.32,1.47-7.07,3.5-9.86,1.21-1.65,5.24-4.91,7.22-2.34,3.87,5.03,12.56.05,8.63-5.05h0Z"/>
    <path class="cls-1" d="M681.32,163.3c3.36-2.53,10.63-7.83,14.23-3.1,3.35,4.41-.62,9.8-4.46,12.16-3.45,2.13-7.19,3.42-9.08,7.31s-1.13,7.56,1.6,10.57c4.33,4.78,11.39-2.31,7.07-7.07.88.97,1.05.24,2.37-.54,1.22-.72,2.54-1.24,3.74-2.02,2.41-1.57,4.54-3.52,6.25-5.83,3.39-4.61,4.68-10.49,2.87-15.99-4.65-14.15-20.18-11.23-29.63-4.12-5.08,3.82-.1,12.51,5.05,8.63h0Z"/>
    <path class="cls-1" d="M682.12,192.08l-1.56,1.56c-.91.91-1.46,2.25-1.46,3.54-.03.69.12,1.33.43,1.93.2.62.55,1.16,1.03,1.61.95.87,2.2,1.52,3.54,1.46s2.58-.51,3.54-1.46l1.56-1.56c.91-.91,1.46-2.25,1.46-3.54.03-.69-.12-1.33-.43-1.93-.2-.62-.55-1.16-1.03-1.61-.95-.87-2.2-1.52-3.54-1.46s-2.58.51-3.54,1.46h0Z"/>
  </g>
</svg>