<?xml version="1.0" encoding="UTF-8"?>
<svg id="Layer_1" data-name="Layer 1" xmlns="http://www.w3.org/2000/svg" viewBox="0 0 979.91 565.62">
  <defs>
    <style>
      .cls-1 {
        fill: #fff;
      }
    </style>
  </defs>
  <g>
    <path class="cls-1" d="M85.99,184.52c-21.52-.88-39.89-23.13-44.68-42.91s5.3-38.26,20.59-49.8c8.45-6.38,18.95-11.16,29.6-11.84,12.19-.78,23,5.85,32.24,13.23,8.27,6.61,12.92,15.62,15.44,25.76s4.63,22.51,1.48,32.57c-3.56,11.35-13.47,20.74-23.24,26.99s-21.92,10.28-33.74,6.82c-6.19-1.81-8.83,7.84-2.66,9.64,24.66,7.22,52.34-10.18,64.84-30.97,7.18-11.94,6.7-25.08,4.74-38.45-1.78-12.1-5.59-24.1-13.66-33.54-4.39-5.14-10.05-9.08-15.71-12.69s-11.91-7.3-18.8-8.64c-13.04-2.53-26.7,1.3-38.1,7.66-20.06,11.19-35.96,33.05-34.09,56.82,2.18,27.75,26.77,58.17,55.75,59.36,6.44.26,6.42-9.74,0-10h0Z"/>
    <path class="cls-1" d="M54.28,171.61c21.51-16.97,51.44-16.11,70.95,3.6,4.53,4.58,11.61-2.49,7.07-7.07-10.89-11-25.4-17.81-40.88-18.75-16.46-1-31.48,5.1-44.21,15.15-5.05,3.98,2.07,11.02,7.07,7.07h0Z"/>
    <path class="cls-1" d="M87.48,125.16c-4.93-2.21-10.2-6.53-7.53-12.33,2.5-5.45,9.45-9.29,15.29-7.27s8.83,8.56,5.92,13.93-9.64,6.5-15.19,5.22c-6.26-1.44-8.94,8.2-2.66,9.64,10.72,2.47,22.67-.96,27.38-11.66s-1.21-22.37-11.56-26.35c-10.52-4.04-22.7,1.71-27.81,11.43-5.61,10.66.85,21.41,11.12,26.02,5.82,2.61,10.92-6,5.05-8.63h0Z"/>
  </g>
  <path class="cls-1" d="M214.01,258.24c-.4-6.93,7.7-9.73,13.49-9.81,8.97-.12,17.36,5.64,25.84,7.91,10.47,2.81,20.17-.63,30.68-.59s19.95,2.35,29.8,4.3,19.22,3.62,28.93,3.07,18.7-3.84,27.98-6.45c4.61-1.3,9.33-2.43,14.15-2.3,5.22.14,9.55,2.22,14.03,4.69,8.69,4.79,16.86,6.94,26.8,5.77,10.09-1.19,19.87-4.21,30.11-2.98s19.58,4.34,29.66,2.53c8.81-1.58,15.78-7.77,24.37-9.85,4.83-1.17,9.51.22,14.3.92s9.32.56,13.86-1.21c3.63-1.42,6.87-3.58,10.41-5.18,4.82-2.19,7.54-1.13,11.73,1.7,6.88,4.64,14.23,5.43,21.97,2.42s14.58-8.82,22.44-12.15c9.29-3.93,19.73-2.77,29.49-1.82,50.5,4.93,100.99,9.99,151.49,14.99,6.4.63,6.36-9.37,0-10-46.56-4.61-93.12-9.21-139.69-13.82-10.43-1.03-21.2-2.85-31.7-1.79-9.55.97-17.25,4.88-25.33,9.77-7.81,4.73-15.14,9.44-23.64,3.75-7.34-4.91-13.78-5.54-21.83-1.7-4.08,1.94-7.98,4.93-12.58,5.47-5.32.63-10.69-1.67-16-1.85-9.33-.31-16.84,5-25.03,8.56-10.18,4.42-20.39,1.17-30.82-.34s-20.04.46-30.32,2.13c-4.88.79-10.02,1.35-14.89.27-5.23-1.17-9.57-4.38-14.33-6.65-8.8-4.2-17.85-4.26-27.23-2.05-10.13,2.38-19.77,6.75-30.28,7.22s-20.52-1.78-30.59-3.8c-10.91-2.19-22.16-4.4-33.33-3.36-6.23.58-12.45,2.5-18.73,1.44-5.53-.93-10.73-3.36-15.93-5.35-8.82-3.38-17.69-5.14-26.72-1.44-7.33,3.01-13.06,9.27-12.58,17.58.37,6.4,10.37,6.44,10,0h0Z"/>
  <path class="cls-1" d="M220.23,333.66c3.73-3.54,7.47-7.08,11.2-10.62,3.07-2.91,6.56-7.96,10.33-3.61,2.35,2.72,4,5.93,6.74,8.33,3.09,2.71,6.91,4.63,10.94,5.47,3.59.74,7.41.71,10.97-.25,4.57-1.23,8.25-4.45,12.73-5.81,8.31-2.53,17.4,2.64,25.86,2.46,4.23-.09,8.11-1.31,11.99-2.9,3.32-1.36,7.51-3.94,11.2-3.78s4.95,4.71,7.42,7.01c2.89,2.69,6.81,3.9,10.71,3.81,9.1-.22,15.22-6.97,23.69-8.7,5.19-1.06,7.7,2.23,11.65,4.83s8.44,3.58,13.08,3.79c10.23.48,20.88-.79,31.06-1.68,10.45-.91,20.9-2.27,31.13-4.64s19.78-6.11,30.01-7.45c5.32-.7,10.69-.63,15.87.9,4.48,1.32,8.6,3.64,13.06,5.01,9.24,2.85,18.63.81,27.81-1.16,4.65-1,9.29-1.93,14.08-1.81,5.22.13,10.28,1.5,15.33,2.73,10.14,2.47,19.42,3.12,29.8,1.95,4.74-.53,9.55-1.19,14.33-.94,5.34.28,9.95,2.26,14.9,4.07,11.18,4.08,21.95,1.2,33.27-.66,12.41-2.05,24.9-3.57,37.43-4.62,24.67-2.06,49.46-2.2,74.16-.55,6.42.43,6.4-9.57,0-10-22.42-1.5-44.92-1.53-67.34.03-10.94.76-21.85,1.9-32.72,3.38-5.38.73-10.76,1.54-16.11,2.44-5.74.97-11.57,2.51-17.44,2.33-4.66-.15-8.85-2.16-13.15-3.74-4.78-1.76-9.67-2.67-14.78-2.71-10.36-.09-20.59,3.01-30.95,1.3-9.8-1.61-19.26-5.42-29.34-4.99-10.04.43-19.65,4.6-29.71,4.44-9.64-.15-17.89-6.54-27.5-7.56-10.53-1.12-21.02,1.75-31.06,4.6-20.98,5.94-41.99,8.01-63.7,9.13-4.34.22-9.29.9-13.46-.63s-7.21-5.61-11.63-7.15c-9.62-3.34-17.25,3.1-25.62,6.56-3.45,1.43-8,2.75-10.77-.45s-4.37-6.59-8.69-8.08c-7.7-2.66-15.07,2.26-22.11,4.7-10.04,3.48-19.86-2.68-30.07-1.69-9.45.92-17.05,10.47-26.81,5.52-7.45-3.77-9.16-14.73-18.86-14.94-4.83-.1-8.64,2.91-12,6.01-4.73,4.36-9.33,8.85-14,13.27s2.4,11.5,7.07,7.07h0Z"/>
  <path class="cls-1" d="M219.86,419.49c-.83-.19-1.38-.68-1.63-1.49l-5,5c22.63-1.28,44.89-6.14,67.52-7.36,20.3-1.09,40.95.42,60.11,7.65,8.84,3.34,17.2,9.75,27.1,8.48,8.65-1.11,15.45-7.18,21.19-13.31,1.36-1.45,2.79-2.89,4.02-4.44,1.73-2.19,1.45-1.38,3.37.32,3.57,3.15,7.6,5.43,12.01,7.19,8.89,3.55,18.77,4.82,28.2,6.14,11.96,1.67,23.3.97,35.24-.41,11.58-1.34,23.16-2.42,34.18,2.2,5.93,2.48,8.52-7.19,2.66-9.64-19.59-8.21-40.37-.05-60.62-.97-10.06-.46-20.58-2.15-30.32-4.75-4.55-1.21-9.07-2.86-12.89-5.68-3.33-2.46-5.92-6.56-10.57-6.42-4.38.13-7.13,3.65-9.81,6.63-3.18,3.53-6.42,7.24-10.33,9.99-3.19,2.24-6.91,3.88-10.89,3.29-5.33-.79-10.36-4.31-15.27-6.39-18.74-7.95-39.28-10.51-59.51-10.15-25.33.45-50.13,6.21-75.37,7.65-2.43.14-5.37,2.19-5,5,.58,4.46,2.43,8.02,6.58,10.12,5.73,2.9,10.79-5.72,5.05-8.63h0Z"/>
  <path class="cls-1" d="M8.26,11.8c9.41-.07,18.82-.13,28.23-.18,25.71-.16,51.41-.31,77.12-.44,38.41-.2,76.81-.38,115.22-.53,47-.19,93.99-.34,140.99-.45,51.94-.12,103.88-.19,155.82-.2s106.21.06,159.32.22c50.49.16,100.99.4,151.48.81,23.18.19,46.36.41,69.53.68,10.84.13,21.67.27,32.51.42,5.2.07,10.41.15,15.61.23,2.48.04,5.01-.05,7.49.13,5.2.39,4.41,4.17,4.45,8.48.9,79.23,1.79,158.46,2.69,237.69.9,79.45,2.81,159.03-.94,238.44-.9,19.17-2.17,38.33-3.86,57.45l5-5c-127.4,2.21-254.58-12.18-381.99-5.91-63.26,3.12-126.31,9.96-189.65,11.61-63.43,1.65-126.37-4.94-189.64-8.04-34.45-1.69-69.05-1.97-103.53-1.64-33.29.32-66.47,2.4-99.4,7.47l6.15,6.15c2.4-15.66,2.3-31.86,2.7-47.66.47-18.97.74-37.96.54-56.93-.18-17.76-1.43-35.52-2-53.27-.77-23.74-1.26-47.49-1.58-71.24-.66-48.41-.64-96.83-.26-145.24.31-40.09.88-80.17,1.67-120.26.37-18.93,1.7-38.06,1.3-56.99,0-.27.01-.54.02-.8C13.44.36,3.44.37,3.26,6.8c-.43,15.36-.77,30.72-1.09,46.08-.79,37.85-1.38,75.7-1.75,113.55-.47,47.99-.6,95.99-.13,143.98.44,45.07,1.88,90.06,3.63,135.1.62,15.99.24,32.06,0,48.05-.29,18.6-.54,37.28-1.98,55.83-.19,2.46-.48,5.61-.72,7.16-.61,3.99,2.16,6.77,6.15,6.15,59.48-9.15,120.52-8.23,180.52-6.28,63.27,2.05,126.26,9.65,189.63,9.19s126.45-7.07,189.65-10.86c62.65-3.76,125.28-2.99,187.97-.64,71.24,2.67,142.47,6.7,213.78,5.46,2.88-.05,4.76-2.26,5-5,7.04-79.87,6.33-160.11,5.43-240.21-.9-79.89-1.81-159.78-2.71-239.68-.11-9.95-.23-19.89-.34-29.84-.11-9.79.49-19.91-.43-29.66-1.42-15.15-17.78-12.77-29.02-12.93-22.1-.33-44.2-.59-66.3-.82-49.32-.5-98.65-.82-147.97-1.03-53.38-.23-106.76-.35-160.14-.38-53.1-.04-106.21,0-159.31.09-49.17.09-98.34.22-147.5.4-41.51.15-83.02.32-124.52.53-29.71.15-59.42.31-89.13.49-13.96.08-27.95-.04-41.91.27-.6.01-1.21,0-1.81.01-6.43.05-6.45,10.05,0,10Z"/>
</svg>