<?xml version="1.0" encoding="UTF-8"?>
<svg id="Layer_1" xmlns="http://www.w3.org/2000/svg" version="1.1" viewBox="0 0 788.5 749.5">
  <!-- Generator: Adobe Illustrator 30.0.0, SVG Export Plug-In . SVG Version: 2.1.1 Build 123)  -->
  <defs>
    <style>
      .st0 {
        fill: #fff;
      }
    </style>
  </defs>
  <path class="st0" d="M37.5,719.5c-15.8-7.5-20.7-25.7-22.8-41.7-3-22.7-3.3-46-4-68.8-1.4-48.3-.4-96.7,1.3-145,3.3-97.2,9.3-194.6,3.7-291.8-1.2-21.4-3.8-42.7-4.8-64.1-.8-17.3-.6-35.2,4.9-51.8,5.5-16.9,17.4-30,34.4-36,9.9-3.5,20.3-4.9,30.7-6,11.8-1.2,23.7-2.4,35.5-3.2,24.5-1.8,48.7-.9,73.1,2,23.9,2.8,47.7,6.2,71.7,8.4,48.7,4.5,97.5,6,146.4,6.3,97.9.7,195.8-3.5,293.7,1.1,20,1,44.9-.2,60.6,14.5,12.3,11.5,15.8,28.9,16.5,45,.9,19.8-1.8,39.6-3.3,59.3-1.9,24.6-3.2,49.3-4.2,74.1-4,98.3-2,196.6-2.3,295-.1,48.8-.3,97.8-3,146.6-1.1,20.6-5.6,40-21.8,54-14.4,12.4-33.8,18.5-52.5,20-23.8,2-47.5-1.7-71.1-3.7-24.1-2-48.4-1.8-72.6-.7-49.2,2.2-98.2,7.5-147.6,6.5-48.9-1-97.7-5.2-146.5-8.4-49.8-3.3-99.6-6.5-149.4-9.8-23.9-1.6-47.8-3.1-71.7-4.7-6.4-.4-6.4,9.6,0,10,101.9,6.7,203.7,13.6,305.6,20,25.3,1.6,50.6,2.9,75.9,3,25,.1,49.9-1.2,74.8-2.9,25.5-1.7,51.1-3.7,76.7-4.3,24.8-.6,49.4.7,74.1,3.2,40.1,4,88,5.9,117.5-27.1,14.2-15.9,17.7-36.2,18.8-56.9,1.2-24.8,1.8-49.7,2.2-74.5,1.8-101.6-.8-203.3,1.2-304.9,1-50.1,3-100.2,7.2-150.1,2.8-33,8.3-77.4-22.5-99.8-17.4-12.7-41-12.2-61.6-13.2-25.6-1.2-51.2-1.9-76.8-2.1-50-.5-99.9.4-149.9.8-50.5.4-101.1.4-151.6-1.9-24.9-1.2-49.7-2.9-74.5-5.4S199.2,3.6,174,1.3C149.1-1,124.3,0,99.4,2.3c-20.8,1.9-43.2,2.7-62.1,12.5C3.6,32.4-.8,73.3.8,107.3c1,21.7,3.6,43.2,4.9,64.9,1.5,25.4,2.1,50.8,2.3,76.2.3,49.6-1.5,99.3-3.4,148.9C2.5,447.6.4,497.9,0,548.2c-.2,24.8.1,49.6,1.1,74.4.9,22,.8,45,5.4,66.7,3.3,15.7,10.7,31.5,25.9,38.8,5.8,2.8,10.9-5.9,5-8.6h0Z"/>
  <g>
    <path class="st0" d="M78.2,157.3h.5c2.2.5,4.4-.2,5.7-2.2,2.1-3.4.5-8.2-3.6-9.2-5.6-1.3-7.7,4.4-8.2,8.7-1.6,13.6-2.9,27.2-4.4,40.9-.3,2.6,2.5,5.1,5,5,9.5-.5,18.7.4,28,2.8,6.2,1.6,8.9-8,2.7-9.6-10-2.6-20.3-3.7-30.6-3.2l5,5c.8-7,1.5-13.9,2.2-20.9.3-3.2.7-6.3,1-9.5.2-1.9.4-3.8.6-5.7,0-.6.6-4.8,0-4.3l-3.8.5.6.2-3-2.3v-3.4c1.9-.8,3.8-1.5,5.7-2.3h-.5c-6.3-1.3-9,8.3-2.7,9.6h0Z"/>
    <path class="st0" d="M86.4,159.4c7.4-2.6,14.8-2.9,22.3-.5,6.2,1.9,8.8-7.8,2.7-9.6-9.1-2.8-18.7-2.6-27.7.5-6,2.1-3.4,11.8,2.7,9.6h0Z"/>
    <path class="st0" d="M83.4,180.8c5.3-.8,10.6-.8,16-.4,6.4.5,6.4-9.5,0-10s-12.4-.1-18.6.8c-2.7.4-4.1,3.8-3.5,6.1.8,2.9,3.5,3.9,6.2,3.5h0Z"/>
    <path class="st0" d="M114.6,169.1c.2,10.2.4,20.4.6,30.6h10c-.8-9.2-2.3-23.6,8.6-27.6,4.5-1.6,8.2.8,9.4,5.2,1.6,5.7-1.2,11.8-3.4,16.9-2.6,5.8,6.1,10.9,8.6,5,3.5-7.9,7-16.6,4.2-25.3-2.3-7.3-8.5-12.6-16.3-12.5-7.1.2-13.9,4.8-17.5,10.7-4.9,8.2-4.4,18.3-3.6,27.4.5,6.3,10.1,6.5,10,0-.2-10.2-.4-20.4-.6-30.6-.1-6.4-10.1-6.5-10,0h0Z"/>
    <path class="st0" d="M155.1,169.1c0,11.2.6,22.4.1,33.6-.2,4-.9,8.2-5.1,9.8-3.4,1.3-6.9.5-9.3-2.2-4.4-4.8-11.4,2.3-7.1,7.1,7.4,8,21.8,7.4,28-1.9,3.9-5.8,3.4-13.2,3.4-19.9,0-8.8,0-17.7-.1-26.5,0-6.4-10-6.5-10,0h0Z"/>
    <path class="st0" d="M164.1,152.8l-1.2-1.8c-.7-1.1-1.7-2-3-2.3-.7-.2-1.3-.2-2,0-.7,0-1.3.2-1.9.6-1.1.7-2,1.7-2.3,3s-.2,2.7.5,3.9l1.2,1.8c.7,1.1,1.7,2,3,2.3.7.2,1.3.2,2,0,.7,0,1.3-.2,1.9-.6,1.1-.7,2-1.7,2.3-3s.2-2.7-.5-3.9h0Z"/>
    <path class="st0" d="M192.3,161.9c-10.4-7.7-23.9.1-26.8,11.5s3.8,24.3,15.2,27.6c10.5,3.1,23-3.2,25.9-13.9,3.2-11.7-5.6-22.9-17-24.4-6.4-.8-6.3,9.2,0,10,5.4.7,8.9,7.4,7.1,12.3s-8.4,7.9-13.4,6.3c-5.4-1.7-8.9-7.7-8.6-13.2.4-6.4,6.4-12.1,12.4-7.6,5.2,3.8,10.2-4.8,5.1-8.6h0Z"/>
    <path class="st0" d="M221.1,164.5c-1.7-7.9-12.9-4-11.1,3.8,1.1,4.6,3.6,9.3,5.3,13.7,1.9,5,3.9,9.9,5.9,14.9,2.3,5.9,12,3.3,9.6-2.7-1.9-5-3.9-9.9-5.9-14.9-.9-2.3-1.8-4.7-2.8-7-.5-1.2-.9-2.3-1.4-3.5-.2-.5-.9-3.3-1.1-2.1l-2.3,3,.6-.3-3.9.5.7.2-3.5-3.5v.6c1.5,6.3,11.1,3.6,9.8-2.7h0Z"/>
    <path class="st0" d="M232.7,165.9c-3.6,9.1-7.3,18.3-10.9,27.4-2.6,6.5-5.3,16-12.9,18-6.2,1.6-3.6,11.3,2.7,9.6,9.1-2.4,13.9-10.5,17.3-18.7,4.7-11.2,9-22.5,13.5-33.7,2.4-6-7.3-8.6-9.6-2.7h0Z"/>
  </g>
  <g>
    <path class="st0" d="M266.2,171.8c5.3,8.6,11.5,16.6,18.7,23.8,4.6,4.5,11.6-2.5,7.1-7.1-6.6-6.6-12.3-13.8-17.1-21.7-3.4-5.5-12-.5-8.6,5h0Z"/>
    <path class="st0" d="M303.1,166.4c-6.1,9.1-12.2,18.3-18.2,27.4-4.3,6.5-9.8,18-18.9,17.7-6.4-.2-6.4,9.8,0,10,10.7.3,17.7-8.1,23.2-16.2,7.6-11.2,15-22.6,22.5-33.9,3.6-5.4-5.1-10.4-8.6-5h0Z"/>
    <path class="st0" d="M330.4,163.1c-11.6-3-23.6,4.6-24.6,16.8-.9,10.6,6.3,21.2,17.3,22.3s21.3-6.9,22.5-17.6c1.3-12.1-9.6-23-21.6-22.4-6.4.3-6.4,10.3,0,10,6-.3,12.2,4.6,11.8,11-.4,5.4-6.3,9.4-11.4,9.1-12.8-.8-10.5-23.2,3.5-19.5,6.2,1.6,8.9-8,2.7-9.6h0Z"/>
    <path class="st0" d="M345.5,166c-.1,8.5-4.5,16.5-2,25,2,7.1,8.4,12.1,15.9,11,17-2.5,22.4-24.6,18.5-38.7-1.7-6.2-11.4-3.6-9.6,2.7,2.2,7.9.6,24.7-10.2,26.1-4.8.6-5.6-5.2-5.4-8.8.4-5.9,2.7-11.4,2.8-17.3.1-6.4-9.9-6.4-10,0h0Z"/>
    <path class="st0" d="M384.7,167.6c-.6,10.8-1.2,21.6-1.9,32.4-.4,6.5,9.3,6.2,10,0,1.2-10.8,4-28.5,18.4-27.9,6.4.3,6.4-9.7,0-10-8.5-.4-16,4.3-20.8,11.1-5.5,7.8-6.6,17.6-7.6,26.8h10c.6-10.8,1.2-21.6,1.9-32.4.4-6.4-9.6-6.4-10,0h0Z"/>
  </g>
  <g>
    <path class="st0" d="M459.2,158.2v43.7c0,6.4,10,6.5,10,0v-43.7c0-6.4-10-6.5-10,0h0Z"/>
    <path class="st0" d="M450.2,161.6h31.2c6.4,0,6.5-10,0-10h-31.2c-6.4,0-6.5,10,0,10h0Z"/>
    <path class="st0" d="M488.7,171c-.4-2,2.8-1.5,3.4-1.3,1.3.4,2.3,1.7,3.1,2.7,1.8,2.4,2.8,5.3,3.3,8.2,1,6,0,12.2-.9,18.1-1,6.3,8.7,9,9.6,2.7,1.9-12.1,3.8-27-5.5-36.8-3.9-4.1-9.7-6.6-15.3-4.6s-8.7,7.8-7.4,13.6c1.4,6.3,11,3.6,9.6-2.7h0Z"/>
    <path class="st0" d="M502.7,178.8c-6.2-4.2-14.7-5.9-21.2-1.4-6,4.1-8.6,12.5-4.2,18.7,3.7,5.2,11,6.9,16.9,5.1,7.5-2.4,11.6-9.6,14.1-16.6,2.1-6.1-7.5-8.7-9.6-2.7-1.5,4.2-6.3,13.1-12.2,9.2-2.5-1.7-1.1-4.6,1.2-5.8,3.4-1.8,7.2.2,10,2.1,5.4,3.6,10.4-5,5-8.6h0Z"/>
    <path class="st0" d="M526.5,150.4c-.1,8.3-.2,16.6-.3,25,0,7.3-1,15.1,0,22.4.8,5.3,4.2,10.4,10,10.7,5.4.3,9.3-3.1,9.8-8.4.6-6.4-9.4-6.4-10,0,1.2-1.2,1.4-1.7.7-1.5-.5-.9-.7-1.9-.8-2.9-.2-1.6,0-3.3,0-4.9,0-4.5.1-9,.2-13.4.1-9,.2-17.9.3-26.9,0-6.4-9.9-6.4-10,0h0Z"/>
    <path class="st0" d="M524.6,173.2c4.6-1.1,9.1-.2,13.1,2.3,5.5,3.4,10.5-5.3,5-8.6-6.3-3.9-13.6-5-20.8-3.3-6.3,1.5-3.6,11.1,2.7,9.6h0Z"/>
    <path class="st0" d="M552.8,150.4c-.5,14.9-.5,30.4,1.8,45.2.8,5.4,4.3,9.6,10,9.9s10.1-3.5,13.7-7.7c4.2-4.9-2.9-12-7.1-7.1-1.2,1.4-2.5,3.4-4.2,4.2-2.8,1.3-2.5-.2-2.9-2.7-.6-4.4-.8-8.9-1.1-13.3-.6-9.5-.6-19-.3-28.6.2-6.4-9.8-6.4-10,0h0Z"/>
    <path class="st0" d="M552.6,168.3l.4.4,1.5,3.5v-.3c-.2.8-.5,1.7-.7,2.5-.3.7-1.2.5-1.2,1,0,.2,2.7.7,2.9.8,2.3.6,4.5,1.2,6.8,1.8,6.2,1.6,8.9-8,2.7-9.6-2.6-.7-5.2-1.4-7.8-2s-5.1-1.4-7.8-.4c-2,.8-3.7,2.1-4.5,4.1-1,2.6,0,5.8,2.7,7,2.5,1.1,5.4.7,6.8-1.8,1.2-2.1.7-5.7-1.8-6.8h0Z"/>
    <path class="st0" d="M596.7,164.4c-11.6-7.8-20.6,11.4-21.5,20.2-1.1,11,6,23.2,18,23.3,10.6,0,20.2-9,21.1-19.5,1-11.9-7.5-22.6-17.9-27.3-5.8-2.6-10.9,6-5,8.6s10.9,6.9,12.6,13.1c1.5,5.6-.8,11.2-6.1,13.9-5.5,2.8-10.8-.2-12.4-6.1-.8-3.2-.4-6.5.7-9.5.3-.9,3.9-9.2,5.5-8.1,5.4,3.6,10.4-5.1,5-8.6h0Z"/>
    <path class="st0" d="M649.5,165.1c-3.8-4.9-9.3-6.8-15.4-5s-9.5,7-11.6,12.4c-4.2,11-5.8,27.8,6.4,34.3,11.6,6.1,25.1-2,28.2-13.9,3.5-13.6-4.7-25.6-15.1-33.5-5.1-3.9-10.1,4.8-5,8.6,5.7,4.3,10.8,10.5,11,17.9.2,6.6-4.2,13.6-11.5,12.8-8.1-.8-7.6-10.6-6.3-16.5.7-3.3,1.5-7.1,3.5-9.9,1.2-1.6,5.2-4.9,7.2-2.3,3.9,5,12.6,0,8.6-5h0Z"/>
    <path class="st0" d="M681.3,163.3c3.4-2.5,10.6-7.8,14.2-3.1,3.3,4.4-.6,9.8-4.5,12.2-3.5,2.1-7.2,3.4-9.1,7.3s-1.1,7.6,1.6,10.6c4.3,4.8,11.4-2.3,7.1-7.1.9,1,1,.2,2.4-.5,1.2-.7,2.5-1.2,3.7-2,2.4-1.6,4.5-3.5,6.2-5.8,3.4-4.6,4.7-10.5,2.9-16-4.7-14.1-20.2-11.2-29.6-4.1-5.1,3.8,0,12.5,5,8.6h0Z"/>
    <path class="st0" d="M682.1,192.1l-1.6,1.6c-.9.9-1.5,2.2-1.5,3.5,0,.7.1,1.3.4,1.9.2.6.5,1.2,1,1.6,1,.9,2.2,1.5,3.5,1.5s2.6-.5,3.5-1.5l1.6-1.6c.9-.9,1.5-2.2,1.5-3.5,0-.7-.1-1.3-.4-1.9-.2-.6-.5-1.2-1-1.6-1-.9-2.2-1.5-3.5-1.5s-2.6.5-3.5,1.5h0Z"/>
  </g>
</svg>