<?xml version="1.0" encoding="UTF-8"?>
<svg id="Layer_1" data-name="Layer 1" xmlns="http://www.w3.org/2000/svg" viewBox="0 0 95.03 92.3">
  <defs>
    <style>
      .cls-1 {
        fill: #fff;
      }
    </style>
  </defs>
  <path class="cls-1" d="M34.83,56.07c.04-5.68-6.18-8.04-10.22-10.88-5.49-3.85-10.82-7.92-16.02-12.16l-3.54,8.54c10.99.3,21.98.6,32.97.9,1.69.05,3.52-.97,4.32-2.48,5.45-10.24,4.4-22.27,10-32.53l-9.14-1.19c1.79,6.08,3.55,12.17,5.38,18.24,1.2,3.98,2.24,10.05,5.53,12.9,3.64,3.15,10.64,1.79,15.06,1.66,6.59-.2,13.12-.39,19.59,1.12-.4-3.05-.8-6.09-1.19-9.14-9.51,4.8-20.58,12.15-26.37,21.37-3.11,4.95.28,9.87,2.13,14.67,2.43,6.32,4.43,12.78,6.11,19.33,2.45-1.88,4.9-3.76,7.34-5.65-5.35-3.32-10.35-7.11-15.4-10.87-3.91-2.92-9.82-8.96-15.15-7.68s-10.49,6.08-14.67,9.13c-5.27,3.85-10.31,7.97-14.96,12.56,2.79,1.62,5.57,3.24,8.36,4.86,3.69-10.23,7.53-20.68,9.7-31.36,1.27-6.28-8.36-8.97-9.64-2.66-2.17,10.68-6,21.13-9.7,31.36-1.76,4.87,4.99,8.18,8.36,4.86,3.83-3.77,7.9-7.27,12.22-10.47,2.13-1.58,4.3-3.09,6.51-4.56,1.22-.81,5.11-4.22,6.49-4.1-1.72-.14.59,1.73.69,1.82.78.73,1.87,1.29,2.74,1.91,2.03,1.45,4.02,2.96,6.02,4.46,4.37,3.28,8.76,6.49,13.4,9.37,3.79,2.35,8.4-1.53,7.34-5.65-1.22-4.77-2.6-9.49-4.21-14.14-1.13-3.26-5.55-10.45-3.89-13.43,1.9-3.45,6.6-6.73,9.66-9.09,3.73-2.88,7.78-5.29,11.98-7.41,3.81-1.93,2.89-8.19-1.19-9.14-4.6-1.07-9.26-1.57-13.98-1.62-5.08-.06-10.62.96-15.64.29-2.04-.27-.08.96-1.26-.33-.58-.64-.83-2.28-1.1-3.1-.71-2.13-1.33-4.28-1.96-6.43-1.55-5.24-3.09-10.49-4.64-15.73-1.18-4-7.03-5.06-9.14-1.19-2.7,4.94-4.68,10.15-5.75,15.68s-1.48,11.64-4.25,16.85l4.32-2.48c-10.99-.3-21.98-.6-32.97-.9-4.06-.11-6.96,5.74-3.54,8.54,3.94,3.21,7.93,6.34,12.01,9.37s9.26,5.56,12.77,9.12l-1.46-3.54v1.01c-.05,6.44,9.95,6.44,9.99,0Z"/>
</svg>