<?xml version="1.0" encoding="UTF-8"?>
<svg id="Layer_1" data-name="Layer 1" xmlns="http://www.w3.org/2000/svg" viewBox="0 0 96.9 93.08">
  <defs>
    <style>
      .cls-1 {
        fill: #fff;
      }
    </style>
  </defs>
  <path class="cls-1" d="M26.4,89.16c2.37-10.27,5.85-20.18,9.36-30.1.74-2.1-.5-4.55-2.3-5.65-8.81-5.4-17.02-11.5-24.88-18.21l-3.54,8.54c7.02-.07,14.04-.13,21.06-.2,5.02-.05,11.3,1.14,14.58-3.59s4.05-11.04,5.33-16.33c1.45-6,3.44-11.24,7.14-16.22l-9.14-1.19c2.07,5.85,4.29,11.64,6.7,17.37,1.9,4.5,3.6,11.01,6.96,14.62s10.52,2.49,15.09,2.77c6.43.39,12.84,1,19.23,1.76l-2.52-9.32c-9.3,6.6-19.08,14.28-26,23.45-3.51,4.66-1.24,8.06,1.14,12.69,2.82,5.48,6.92,11.54,6.93,17.88l7.52-4.32c-6.99-5.29-14.22-10.23-21.76-14.7-3.24-1.93-6.22-3.86-10.05-2.58-2.39.79-4.66,2.22-6.82,3.48-7.39,4.3-14.47,9.2-21.4,14.2-5.17,3.74-.18,12.42,5.05,8.63,5.83-4.22,11.79-8.3,17.91-12.1,1.91-1.19,3.84-2.36,5.83-3.43.35-.19,2.1-1.35,2.53-1.3.17.02,2.77,2.24,3.52,2.69,6.96,4.21,13.66,8.82,20.15,13.74,3.13,2.37,7.53-.87,7.52-4.32-.02-10.49-7.46-17.67-10.37-27.17l-.5,3.85c2.39-4.41,7.32-8.34,10.99-11.71,4.06-3.73,8.36-7.17,12.86-10.36,4.23-3,2.44-8.72-2.52-9.32s-9.6-1.06-14.42-1.43-10.06.12-14.65-.95l2.99,2.3c-2.91-4.16-4.71-9.64-6.64-14.31s-3.87-9.81-5.63-14.79c-1.52-4.3-6.55-4.68-9.14-1.19-6.2,8.34-7.39,17.79-10.38,27.44-.25.82-1.21,2.47-1.17,3.26-.65.94-.58,1.16.2.67,1.19-.42.75-.5-1.32-.23-2.84-.17-5.77.05-8.61.08-6.06.06-12.12.11-18.18.17-4.06.04-6.95,5.62-3.54,8.54,8.5,7.26,17.37,13.93,26.91,19.77l-2.3-5.65c-3.51,9.92-7,19.83-9.36,30.1-1.44,6.26,8.2,8.94,9.64,2.66Z"/>
</svg>