<?xml version="1.0" encoding="UTF-8"?>
<svg id="Layer_1" data-name="Layer 1" xmlns="http://www.w3.org/2000/svg" viewBox="0 0 109.26 111.33">
  <defs>
    <style>
      .cls-1 {
        fill: #fff;
      }
    </style>
  </defs>
  <path class="cls-1" d="M28.55,67.15c-2.46,12.56-4.92,25.11-7.39,37.67-1,5.1,4.46,8.02,8.36,4.86,4.11-3.33,8.22-6.66,12.33-9.98,2.06-1.66,4.11-3.33,6.17-4.99,1.75-1.42,3.91-4.09,6.43-3.69,1.9.3,4.33,3.07,5.76,4.22,2.07,1.66,4.13,3.31,6.2,4.97,4.13,3.31,8.27,6.62,12.4,9.93,3.58,2.87,9.98.35,8.36-4.86-3.86-12.38-7.71-24.76-11.57-37.13l-2.3,5.65c13.42-5.72,25.25-14.55,34.59-25.76,2.92-3.5.87-8.05-3.54-8.54-12.23-1.34-24.74-2.03-36.87-4.05-3.1-.52-3.65-1.97-4.43-4.91-.73-2.79-1.44-5.58-2.16-8.37-1.6-6.2-3.19-12.4-4.79-18.6-1.34-5.2-7.93-4.27-9.64,0-4.09,10.2-8.08,20.46-12.28,30.62-1.08,2.62-1.45,3.38-4.36,3.63-2.49.22-5.1,0-7.6,0-5.7,0-11.41,0-17.11.01-3.51,0-6.6,4.36-4.32,7.52,7.1,9.84,15.61,18.15,25.66,24.94,5.35,3.61,10.36-5.05,5.05-8.63-8.56-5.78-16.03-12.97-22.08-21.36l-4.32,7.52c6.97,0,13.94,0,20.91-.01,5.47,0,11.24.29,14.81-4.62s5.13-11.69,7.33-17.16c2.65-6.6,5.3-13.21,7.95-19.81h-9.64c1.92,7.44,3.83,14.88,5.75,22.32,1.54,5.96,2.47,12.65,8.69,15.45,5.88,2.65,13.84,2.25,20.16,2.94,7.76.85,15.53,1.7,23.29,2.55l-3.54-8.54c-8.87,10.65-19.82,18.76-32.57,24.19-1.95.83-2.89,3.74-2.3,5.65,3.86,12.38,7.71,24.76,11.57,37.13,2.79-1.62,5.57-3.24,8.36-4.86-5.68-4.55-11.37-9.11-17.05-13.66-4.23-3.39-8.81-8.2-14.56-8.58s-10.6,4.61-14.86,8.06c-5.65,4.58-11.31,9.15-16.96,13.73,2.79,1.62,5.57,3.24,8.36,4.86,2.46-12.56,4.92-25.11,7.39-37.67,1.23-6.29-8.4-8.98-9.64-2.66h0Z"/>
</svg>