<?xml version="1.0" encoding="UTF-8"?>
<svg id="Layer_1" data-name="Layer 1" xmlns="http://www.w3.org/2000/svg" viewBox="0 0 95.11 93.41">
  <defs>
    <style>
      .cls-1 {
        fill: #fff;
      }
    </style>
  </defs>
  <path class="cls-1" d="M33.62,54.01c-8.64-6.69-17-13.71-25.09-21.05l-3.54,8.54c10.11.26,20.2-.02,30.29-.85,2.29-.19,4.11-1.43,4.82-3.67,3.2-10.13,7.13-20.29,9.19-30.73l-9.14,1.19c2.87,5.44,5.58,10.98,8,16.63,1.28,3,2.48,6.03,3.62,9.09.8,2.15,1.37,4.98,3.13,6.64,3.39,3.18,10.92,1.76,15.16,1.8,6.73.07,13.46.15,20.2.22l-2.52-9.32c-5.17,3.39-10.19,7-15.05,10.82-3.93,3.08-10.41,6.96-12.59,11.61s.51,9.63,2.43,13.65c3,6.3,5.41,12.14,5.97,19.18l7.52-4.32c-5.78-3.79-10.88-8.17-15.93-12.86-3.99-3.71-8.16-7.78-14.02-7.03s-10.72,5.53-15.14,8.94c-5.17,3.99-10.18,8.16-15.06,12.5,2.79,1.62,5.57,3.24,8.36,4.86,2.54-9.99,5.17-20.74,10.2-29.79,3.13-5.63-5.51-10.68-8.63-5.05-5.46,9.83-8.46,21.34-11.21,32.18-1.27,4.99,4.68,8.14,8.36,4.86,3.87-3.45,7.82-6.81,11.89-10.02,2.06-1.63,4.15-3.22,6.26-4.77,1.45-1.07,4.33-3.88,6.24-3.87,3.3,0,8.46,6.93,10.83,9.01,4.03,3.53,8.34,6.74,12.82,9.67,3.04,1.99,7.82-.59,7.52-4.32-.38-4.84-1.18-9.6-2.8-14.19-.83-2.35-1.84-4.62-2.93-6.86s-3.16-5.08-3.28-7.59c-.07-1.39-.81.73.55-.55.88-.83,1.81-1.61,2.73-2.4,2.06-1.78,4.16-3.52,6.3-5.22,4.42-3.5,9.03-6.73,13.74-9.81,4.08-2.67,2.59-9.26-2.52-9.32s-10.26-.11-15.39-.17c-4.74-.05-10.47.77-15.1-.21l2.99,2.3c-2.79-4.59-4.18-10.6-6.33-15.56-2.33-5.36-4.9-10.62-7.63-15.79-1.93-3.66-8.31-3.02-9.14,1.19-2.05,10.43-5.99,20.6-9.19,30.73l4.82-3.67c-10.08.83-20.17,1.11-30.29.85-4.22-.11-6.75,5.62-3.54,8.54,8.09,7.34,16.46,14.36,25.09,21.05,5.02,3.9,12.15-3.13,7.07-7.07Z"/>
</svg>