<?xml version="1.0" encoding="UTF-8"?>
<svg id="Layer_1" data-name="Layer 1" xmlns="http://www.w3.org/2000/svg" viewBox="0 0 96.69 91.37">
  <defs>
    <style>
      .cls-1 {
        fill: #fff;
      }
    </style>
  </defs>
  <path class="cls-1" d="M27.91,87.32c2.53-5.37,4.71-10.88,6.3-16.6,1.21-4.36,3.71-10.99,1.51-15.36s-8.5-7.41-12.07-10.14c-5.45-4.17-10.9-8.34-16.35-12.51l-2.52,9.32c6.86.09,13.71.02,20.57-.26,5.2-.21,12.55.76,16.25-3.7,6.95-8.37,4.99-21.18,11.98-29.51l-8.36-2.21c1.24,5.8,2.86,11.5,4.98,17.04,1.74,4.55,3.57,11.13,7.11,14.59s9.88,2.5,14.18,2.54c6.74.05,13.48-.33,20.21-.72l-3.54-8.54c-4.56,3.97-9.11,7.93-13.67,11.9-3.52,3.06-9.45,6.56-11.44,10.9s1.22,10.56,2.5,14.79c1.86,6.14,3.72,12.27,5.58,18.41,2.45-1.88,4.9-3.76,7.34-5.65-4.81-2.31-9.01-5.47-13.27-8.65-3.91-2.93-8.59-6.99-13.5-7.92s-10.55,4.11-14.47,6.77c-5.29,3.58-10.41,7.4-15.43,11.34s2.06,11,7.07,7.07c4.11-3.22,8.32-6.31,12.63-9.25,2.07-1.42,4.17-2.8,6.28-4.15,2.45-1.57,2.46-2.37,4.53-.64,3.18,2.65,7.05,4.84,10.39,7.33,3.42,2.54,6.87,4.89,10.72,6.74s8.7-1.18,7.34-5.65c-1.49-4.91-2.97-9.82-4.46-14.73-.74-2.45-1.49-4.91-2.23-7.36-.37-1.23-.74-2.45-1.12-3.68-1-.27-1.01-.63-.04-1.08.81-1.56,3.7-3.22,5.04-4.38,1.92-1.67,3.84-3.34,5.76-5.01,3.84-3.34,7.67-6.68,11.51-10.02,3.22-2.8.69-8.78-3.54-8.54-5.13.29-10.26.59-15.4.69-2.57.05-5.13.05-7.7-.02-1.28-.03-2.56-.09-3.84-.16-2.45-.38-2.56-.19-.32.57-5.25-7.44-7.7-18.42-9.58-27.19-.75-3.51-5.98-5.04-8.36-2.21-6.44,7.69-7.25,17.01-10.64,26.07-.34.92-.92,1.84-1.2,2.77-.96,1.15-1.07,1.52-.33,1.1.93-.37.43-.38-1.51-.04-2.8.05-5.61.31-8.41.42-6.54.25-13.09.31-19.63.22-5.43-.07-6.18,6.52-2.52,9.32,7.43,5.68,14.87,11.35,22.28,17.05,2.6,2,1.8,2.37,1.09,5.47-.38,1.69-.81,3.37-1.29,5.04-1.32,4.6-3.02,9.05-5.06,13.38-2.73,5.79,5.89,10.87,8.63,5.05h0Z"/>
</svg>