<?xml version="1.0" encoding="UTF-8"?>
<svg id="Layer_1" data-name="Layer 1" xmlns="http://www.w3.org/2000/svg" viewBox="0 0 93.54 93.83">
  <defs>
    <style>
      .cls-1 {
        fill: #fff;
      }
    </style>
  </defs>
  <path class="cls-1" d="M24.39,88.01c2.06-5.72,4.12-11.44,6.18-17.16,1.4-3.87,4.98-9.85,3.61-14.11s-7.64-7.68-10.95-10.39c-4.89-4-9.77-8-14.66-12.01l-3.54,8.54c6.9.36,13.81.51,20.72.38,5.18-.09,11.06.3,14.51-4.29,2.75-3.66,3.72-9.53,4.88-13.87,1.7-6.36,3.16-12.72,5.49-18.89h-9.64c3.44,8.29,6.58,16.7,9.33,25.25,2.16,6.72,3.98,10.7,11.54,11.05,8.8.4,17.76-.37,26.52.68l-3.54-8.54c-4.73,3.82-9.32,7.8-13.72,12-3.73,3.56-9.4,7.78-11.6,12.52-1.98,4.26,1.69,9.19,3.59,12.9,2.73,5.33,5.52,10.72,5.95,16.8l6.33-4.82c-4.34-1.15-8.8-6.16-12.22-8.93-4.28-3.47-8.49-7.01-12.67-10.6-2.24-1.93-4.8-1.78-7.07,0-8.36,6.54-17.42,12.2-26.39,17.86-5.43,3.42-.42,12.08,5.05,8.63,9.71-6.12,19.36-12.35,28.41-19.42h-7.07c5.15,4.44,10.38,8.79,15.69,13.04,4.12,3.29,8.37,7.68,13.6,9.06,2.95.78,6.56-1.51,6.33-4.82-.36-5.07-1.65-9.69-3.68-14.34s-5.56-9.28-6.72-14.16l-.5,3.85c2.61-4.38,7.66-8.27,11.37-11.74,3.99-3.74,8.14-7.31,12.39-10.75,3.8-3.06.22-8.09-3.54-8.54-7.61-.91-15.49-.51-23.14-.62-.96-.01-3.28.39-4.15-.08-.43-.23,0,.94-.55-1.85-.36-1.84-1.19-3.71-1.78-5.49-2.45-7.3-5.18-14.49-8.13-21.6-1.91-4.59-7.81-4.85-9.64,0-3.36,8.92-5.2,18.34-8.02,27.44-.72,2.32-.78,2.05-3.27,2.18-2.63.14-5.27.13-7.9.14-5.6.02-11.19-.14-16.77-.43-4.11-.21-6.9,5.78-3.54,8.54,4.15,3.4,8.31,6.8,12.46,10.21,3.9,3.2,8.53,6.21,11.87,9.99l-1.46-3.54c.16,1.75-1.29,4.19-1.88,5.83-.83,2.29-1.65,4.59-2.48,6.88-1.75,4.86-3.5,9.72-5.25,14.58-2.19,6.06,7.47,8.68,9.64,2.66Z"/>
</svg>