<?xml version="1.0" encoding="UTF-8"?>
<svg id="Layer_1" data-name="Layer 1" xmlns="http://www.w3.org/2000/svg" viewBox="0 0 435.47 719.5">
  <defs>
    <style>
      .cls-1 {
        fill: #fff;
      }
    </style>
  </defs>
  <path class="cls-1" d="M225.25.74c-29.84-3.07-59.68,3.57-86.67,16.18s-50.27,34.11-68.38,58.67c-17.7,24-29.99,51.84-39.51,79.97-9.72,28.72-16.57,58.51-21.49,88.41-10.39,63.17-12.26,127.45-4.11,190.99,4.22,32.84,10.35,65.32,19.34,97.21,8.5,30.13,19.05,60.18,34.16,87.69,29.35,53.43,80.33,96.71,143.33,99.5,30.39,1.35,61.03-7.39,87.62-21.74,27.07-14.61,49.14-35.96,67.69-60.22,17.83-23.32,30.81-49.61,41.64-76.78,11.4-28.61,19.66-58.47,25.38-88.72,11.93-63.09,13.79-127.76,8.22-191.64-2.71-31.07-7.07-62.26-15.32-92.38s-19.28-58.11-35.99-83.07c-15.92-23.79-36.31-43.23-58.95-60.52-19.89-15.19-41.8-27.57-65.27-36.28-10.35-3.84-20.72-5.99-31.67-7.27-5.93-.69-13.64,3.29-17.68,7.32-4.34,4.34-7.6,11.45-7.32,17.68s2.41,13.17,7.32,17.68c5.19,4.77,10.71,6.51,17.68,7.32,4.2.49-7.06-1.14-2.82-.37.99.18,1.98.34,2.97.54,2.08.41,4.14.9,6.18,1.45,4.86,1.29,9.64,2.91,14.32,4.73,1.15.45,2.29.97,3.45,1.39-.15-.05-6.07-2.67-2.48-1.03,2.38,1.08,4.76,2.14,7.1,3.29,5.35,2.6,10.59,5.43,15.73,8.43,4.56,2.66,9.03,5.47,13.41,8.41,2.45,1.64,4.87,3.32,7.26,5.03,1.21.87,2.41,1.74,3.6,2.63.8.59,1.59,1.19,2.38,1.79,2.09,1.6,1.58,1.21-1.51-1.17,3.97,4.26,9.41,7.66,13.76,11.59s8.72,8.15,12.84,12.47,7.83,8.69,11.58,13.19c3.38,4.06-3.49-4.76-.39-.53.84,1.15,1.69,2.28,2.52,3.43,1.63,2.28,3.2,4.59,4.7,6.95,3.55,5.58,6.78,11.39,9.8,17.27,1.59,3.1,3.12,6.23,4.59,9.4.73,1.58,1.43,3.18,2.15,4.76,2.14,4.65-1.93-4.81.54,1.25,10.69,26.25,17.39,53.97,21.72,81.93.27,1.74.53,3.48.78,5.23.22,1.5,1.58,7.25.07.34.62,2.83.74,5.87,1.08,8.75.88,7.57,1.61,15.17,2.23,22.76,1.19,14.66,1.99,29.35,2.38,44.05.8,29.99-.13,60.04-3.27,89.89-.35,3.38-.74,6.75-1.15,10.12-.22,1.83-.4,3.69-.7,5.51,1.14-6.89.07-.6-.12.69-1.15,7.93-2.46,15.84-3.95,23.71-2.75,14.53-6.09,28.94-10.07,43.18s-8.35,27.53-13.51,40.95c-1.18,3.07-2.42,6.11-3.65,9.16-2.18,5.39,2.33-5.23-.05.08-.67,1.5-1.32,3.01-2,4.51-2.7,6-5.57,11.91-8.63,17.74-6.09,11.59-12.93,22.8-20.65,33.37-.7.95-1.91,3.34-2.92,3.92l1.91-2.48c-.67.85-1.35,1.7-2.03,2.55-2.05,2.53-4.15,5.02-6.31,7.45-4.69,5.28-9.64,10.33-14.86,15.09-2,1.82-4.03,3.6-6.11,5.33-.28.24-3.56,3.15-3.74,3.02l2.52-1.95c-.85.65-1.72,1.28-2.58,1.91-5.64,4.1-11.54,7.85-17.65,11.23-2.58,1.43-5.21,2.78-7.86,4.07-1.21.58-2.42,1.16-3.64,1.71l-1.47.66c-2.47,1.07-1.96.86,1.54-.64-.53-.43-8,3.01-9.02,3.35-3.53,1.19-7.11,2.25-10.72,3.18-3.08.79-6.19,1.48-9.33,2.07-1.21.23-3.65.19-4.7.79l3.5-.45c-.79.1-1.57.19-2.36.28-6.55.72-13.16.96-19.74.67-2.93-.13-6.6-1.17-9.46-.79l3.5.46c-1.05-.16-2.09-.33-3.14-.52-1.57-.28-3.13-.59-4.69-.94-6.16-1.36-12.06-3.34-17.97-5.51-5.24-1.92,5.25,2.5.22.09-1.41-.67-2.83-1.31-4.24-2-2.8-1.39-5.56-2.87-8.26-4.45s-5.36-3.25-7.96-5c-1.3-.88-2.59-1.78-3.86-2.69l-1.27-.93c-2.12-1.59-1.69-1.24,1.3,1.05-.6-1.79-5.75-4.72-7.26-6.05-2.36-2.09-4.67-4.25-6.91-6.47-4.87-4.82-9.34-9.97-13.71-15.25-2.92-3.54.92,1.33,1.01,1.34-.64-.07-2.63-3.54-3.02-4.09-2.05-2.85-4.02-5.75-5.93-8.69-4.12-6.38-7.91-12.97-11.41-19.72-2.97-5.73-5.65-11.57-8.3-17.45-2.51-5.57,2.05,5.16-.23-.51-.66-1.63-1.33-3.26-1.97-4.9-1.51-3.83-2.95-7.68-4.34-11.55-9.85-27.48-17.36-55.86-23.01-84.49-1.43-7.26-2.74-14.55-3.92-21.85-.59-3.65-1.15-7.31-1.67-10.97-.21-1.44-.43-7.49-.11-.69-.08-1.8-.48-3.71-.7-5.51-1.88-15.3-3.19-30.68-3.95-46.08-1.46-29.57-.86-59.24,1.8-88.72.66-7.37,1.46-14.73,2.38-22.07.15-1.21.41-2.47.47-3.67-.37,6.83-.09.73.12-.69.61-4.27,1.27-8.54,1.97-12.8,2.4-14.6,5.32-29.12,8.76-43.52,3.22-13.49,6.86-26.89,11.14-40.08,2.08-6.42,4.33-12.8,6.75-19.1.61-1.57,1.22-3.14,1.85-4.71.67-1.67,1.57-6.52.06-.25.87-3.6,3.25-7.38,4.84-10.72,5.75-12.07,12.39-23.74,20.11-34.67.96-1.36,1.97-2.7,2.94-4.05,3.4-4.75-3.55,4.28.17-.23,1.78-2.16,3.53-4.32,5.36-6.43,4.55-5.21,9.42-10.12,14.63-14.66,1.19-1.04,2.4-2.05,3.62-3.05l1.23-.99c2.09-1.64,1.65-1.3-1.32,1.02.88.28,6.71-4.75,7.74-5.41,5.26-3.44,10.74-6.55,16.39-9.3,1.41-.69,2.85-1.32,4.27-1.99,5.07-2.4-5.44,2.05-.19.08,2.94-1.1,5.86-2.22,8.84-3.19,5.96-1.94,12.04-3.49,18.2-4.62,1.33-.25,3.42-.22,4.63-.78l-3.54.46c1.04-.13,2.07-.25,3.11-.36,3.12-.32,6.25-.54,9.38-.65,6.3-.22,12.6.05,18.87.69,13.05,1.34,25.56-12.46,25-25-.66-14.69-11.02-23.56-25-25Z"/>
</svg>