<?xml version="1.0" encoding="UTF-8"?>
<svg id="Layer_1" data-name="Layer 1" xmlns="http://www.w3.org/2000/svg" viewBox="0 0 743.87 840">
  <defs>
    <style>
      .cls-1 {
        fill: #ffcb16;
      }
    </style>
  </defs>
  <path class="cls-1" d="M303.01.07c-7.89,30.56-33.62,54-62.4,66.96-28.78,12.96-60.64,16.99-91.98,20.75-22.44,2.69-45.9,5.69-64.43,18.63-32.55,22.73-39.15,67.38-42.67,106.92-8.9,100.06-16.28,200.24-23.66,300.42-2.7,36.64-5.4,73.28-8.09,109.92C5.2,685.97.61,748.34,0,810.83c-.03,3.06.02,6.36,1.85,8.82,1.99,2.69,5.54,3.63,8.82,4.31,29.57,6.22,60.33,6.78,90.11,1.66,23.13-187.4,32.41-376.51,27.71-565.27,5.14,83.05,15.48,165.79,30.95,247.55,10.04,53.06,22.26,106.03,24.29,159.99s-6.93,109.93-36.2,155.31c10.76,9.5,421.48,24.13,451.59,12.46-15.23-23.94-42.28-67.05-44.32-142.47-1.85-68.27,17.38-170.65,19.96-178.39,41.2-123.81,30.18-142.78,37.17-258.12,5.41,142.84,13.82,285.54,22.23,428.24,1.87,31.68,3.74,63.35,5.6,95.03,1.13,19.14,4.25,41.57,21.11,50.69,14.08,7.61,70.39,9.41,76.83,7.88,10.46-2.48,5.27-99.09,1.25-136.41-3.78-35.04-10.37-69.72-14.36-104.73-15.72-137.76,8.85-278.88-17.68-414.98-5.07-26.03-12.64-52.89-30.92-72.09-49.81-52.34-148.09-21.39-200.08-71.56-10.23-9.88-33.2-38.75-33.2-38.75l-139.71.07Z"/>
</svg>