<?xml version="1.0" encoding="UTF-8"?>
<svg id="Layer_1" data-name="Layer 1" xmlns="http://www.w3.org/2000/svg" viewBox="0 0 703.03 686.24">
  <defs>
    <style>
      .cls-1 {
        fill: #83358c;
      }
    </style>
  </defs>
  <path class="cls-1" d="M220.33,677.41c32.97-88.29,65.94-176.57,98.9-264.86,16.35-43.77,32.69-87.54,49.04-131.32,7.95-21.29,15.72-42.68,24.72-63.55,8.86-20.53,18.78-40.58,28.67-60.63,23.23-47.05,45.84-94.41,67.75-142.09,2.25-4.9,1.39-10.77-3.59-13.68-4.31-2.52-11.42-1.34-13.68,3.59-19.6,42.68-39.75,85.1-60.44,127.26-10.03,20.43-20.3,40.75-29.75,61.45-9.58,20.97-18.02,42.42-26.11,64-33.16,88.38-66.05,176.86-99.07,265.3-18.57,49.74-37.15,99.48-55.72,149.21-1.89,5.06,2.11,10.96,6.98,12.3,5.6,1.54,10.4-1.91,12.3-6.98h0Z"/>
  <path class="cls-1" d="M16,220.69c87.36,35.83,174.62,71.89,262.23,107.1,87.61,35.22,175.58,69.53,263.48,103.98,49.55,19.42,99.1,38.84,148.64,58.26,5.03,1.97,10.98-2.17,12.3-6.98,1.56-5.67-1.94-10.32-6.98-12.3-87.69-34.37-175.4-68.68-263.06-103.12-88.15-34.63-176.06-69.82-263.71-105.71-49.21-20.15-98.39-40.34-147.58-60.52-5-2.05-10.99,2.22-12.3,6.98-1.58,5.73,1.97,10.24,6.98,12.3h0Z"/>
  <path class="cls-1" d="M195.88,23.16c36.35,85.67,72.7,171.33,109.05,257,36.22,85.36,72.43,170.71,108.65,256.07,20.53,48.38,41.06,96.76,61.59,145.14,2.11,4.97,9.44,6.07,13.68,3.59,5.15-3.01,5.71-8.69,3.59-13.68-36.38-85.75-72.77-171.5-109.15-257.25-36.27-85.49-72.55-170.97-108.82-256.46-20.44-48.17-40.88-96.34-61.32-144.51-2.11-4.97-9.44-6.07-13.68-3.59-5.15,3.01-5.71,8.69-3.59,13.68h0Z"/>
  <path class="cls-1" d="M15.14,495.7c35.96-23.7,76.97-36.9,118.02-48.77,43-12.43,85.72-24.52,126.34-43.68,43.04-20.3,83.8-45.03,127.35-64.32s92.18-38.05,138.45-56.48c52.9-21.07,105.92-41.81,159.06-62.23,5.04-1.94,8.52-6.73,6.98-12.3-1.32-4.82-7.23-8.93-12.3-6.98-94.75,36.42-189.61,73.01-283.14,112.48-22.77,9.61-45.12,20.02-67.04,31.44-20.95,10.91-41.62,22.35-62.73,32.97-20.55,10.34-41.49,19.64-63.24,27.18s-41.73,13.12-62.76,19.13c-46.7,13.34-94.16,27.33-135.1,54.31-10.7,7.05-.69,24.38,10.09,17.27h0Z"/>
  <path class="cls-1" d="M16,220.69c25.15,3.4,50.72,7.09,75.89,1.75,21.12-4.48,40.53-15.38,56.99-29.12,15.84-13.21,29.25-29.9,39.25-47.92,9.93-17.91,14.73-38.32,18.02-58.37,3.75-22.86,5.46-45.96,8.36-68.92l-17.07,7.07c28.31,30.92,67.33,55.83,108.46,65.13,20.62,4.66,41.28,4.44,61.8-.62,21.88-5.4,42.78-15.24,61.96-26.93,21.07-12.84,40.76-28.3,58.19-45.77l-17.07-7.07c-2.37,43.58,4.8,90.4,26.84,128.61,22.82,39.57,64.89,63.96,108.04,75.67,24.59,6.67,50.69,9.49,76.04,6.37l-5.05-18.63c-36.14,25.76-64.13,65.2-72.05,109.34-3.7,20.62-3.15,40.99,4.47,60.66,7.93,20.47,20.18,38.76,33.19,56.3,14.1,19,29.5,37.15,42.11,57.21l5.98-14.69c-43.28,10.61-87.9,16.88-129.53,33.41-19.27,7.65-38.93,17.31-53.14,32.84-15.56,17.01-24.34,39.38-29.26,61.62-5.62,25.36-7.07,51.87-4.62,77.71,5.69-2.36,11.38-4.71,17.07-7.07-30.27-28.24-67.1-52.26-107.01-64.13-20.03-5.96-40.31-7.5-60.96-4.4s-42.21,11.27-61.13,21.79c-21.49,11.95-41.12,27.46-58.15,45.17l15.71,12.12c10.79-19.13,10.87-43.65,6.99-64.71-4-21.71-14.56-42.88-27.49-60.62-13.76-18.88-30.72-35.03-50.21-47.93-18.71-12.38-40.63-18.94-62.56-22.8-25.09-4.41-50.56-5.73-75.98-6.69l7.07,17.07c33.62-29.69,61.47-71.2,72-115.11,10.77-44.89-.98-94.74-25.48-133.23-7.1-11.15-15.39-21.68-24.69-31.07-4.56-4.61-10.16-8.34-15.29-12.3-4.28-3.3-11.2-.65-13.68,3.59-3.02,5.16-.7,10.37,3.59,13.68,3.56,2.74,7.68,5.26,10.89,8.4-2.01-1.97,1.49,1.93,1.48,1.93.75.77,1.5,1.56,2.23,2.34,1.84,1.97,3.64,3.98,5.38,6.04,3.29,3.88,6.36,7.91,9.25,12.09,12.11,17.57,20.82,37.14,25.8,57.89,4.66,19.44,6.35,40.41,2.39,60.12s-12.75,39.96-23.57,57.88c-12.06,19.96-26.94,38.17-44.43,53.61-6.82,6.03-1.08,16.77,7.07,17.07,20.45.77,41.02,1.58,61.3,4.48s39.63,7.06,57.2,16.33c35.39,18.66,64.36,53.64,75.84,91.92,5.5,18.33,7.34,42.68-2.38,59.92-5.49,9.74,7.68,20.47,15.71,12.12,27.48-28.57,62.49-51.93,101.69-60.23,37.55-7.95,73.82,4.96,106.08,23.8,18.41,10.75,35.61,23.46,51.2,38.01,5.79,5.4,17.94,2.06,17.07-7.07-2.03-21.44-1.51-43.38,2.34-64.59,3.66-20.18,9.97-41.63,23.2-57.74,11.6-14.13,28.36-23.13,45.55-30.05,20.54-8.27,42.05-13.98,63.58-19.01,22.34-5.23,44.92-9.43,67.21-14.89,6.14-1.51,9.35-9.31,5.98-14.69-21.42-34.09-50.84-62.86-68.93-99.1-8.26-16.54-11.73-33.21-9.94-51.64,1.9-19.62,9.02-38.74,18.9-55.68,11.34-19.43,26.73-36.64,45.07-49.71,3.66-2.61,5.85-6.74,4.6-11.29-1.06-3.87-5.36-7.87-9.64-7.34-41.49,5.1-85.17-5.35-120.88-26.82-16.7-10.04-31.59-22.77-42.23-39.23s-18.12-36.66-22.56-56.6c-4.96-22.28-6.5-45.23-5.26-68,.48-8.82-11.18-12.97-17.07-7.07-28.51,28.57-64.03,53.39-102.92,65.24-17.48,5.32-35.51,7.44-53.6,4.16-19.16-3.47-37.35-10.86-54.22-20.47-19.11-10.88-36.53-24.5-51.39-40.73-2.67-2.92-7.43-3.6-10.92-2.07-3.97,1.74-5.62,4.98-6.15,9.14-2.31,18.3-3.71,36.72-6.33,54.98s-5.89,37.22-13.35,54.21c-14.39,32.76-44.13,62.3-78.48,73.24-24.37,7.76-50.21,4.22-75.04.86-5.34-.72-10.74,1.29-12.3,6.98-1.28,4.66,1.6,11.57,6.98,12.3Z"/>
  <path class="cls-1" d="M138.46,271.8c65.49-9.86,109.26-65.94,131.69-124.23l-16.71,4.41c10.1,10.69,22.34,17.39,37.14,18.36,7.75.51,15.71-.27,23.46-.65s15.59-.87,23.37-1.58c31.6-2.91,62.66-9.84,90.05-26.49l-14.69-5.98c4.7,32.32,26.89,59.92,50.79,80.82,26.58,23.24,58.18,38.33,90.46,51.91-1.47-5.57-2.94-11.14-4.41-16.71-23.19,23.79-25.69,60.02-27.33,91.46s1.71,65.65,24.35,89.85l2.02-15.71c-30.17,14.83-59.98,31.34-83.47,55.84-22.22,23.19-42.22,53.49-40.73,86.91l15.05-8.63c-55.55-23.68-115.53-29.54-174.39-15.41,4.1,4.1,8.2,8.2,12.3,12.3,7.12-37-28.31-58.07-54.09-76.15-25.74-18.05-52.42-40.41-84.6-44.83l4.41,16.71c22.25-22.13,31.54-54.1,30.58-84.95-1.13-36.08-15.35-69.88-29.97-102.3-2.22-4.92-9.37-6.11-13.68-3.59-5.06,2.96-5.82,8.74-3.59,13.68,12.9,28.61,25.82,58.87,27.18,90.66,1.12,26.17-5.66,53.45-24.66,72.35-4.8,4.78-3.31,15.65,4.41,16.71,28.08,3.86,51,22.6,73.51,38.39,11.75,8.24,24.31,15.94,35.12,25.39,9.09,7.95,18.58,19.61,16.08,32.59-1.44,7.51,4.51,14.17,12.3,12.3,53.19-12.77,108.63-8.07,158.98,13.39,6.45,2.75,15.42-.26,15.05-8.63-1.3-29.25,17.5-55.23,37.15-75.1,21.84-22.1,49.53-36.81,77.15-50.38,6-2.95,6.13-11.31,2.02-15.71-18.79-20.09-19.84-49.75-18.49-75.7,1.34-25.71,2.39-57.75,21.47-77.31,5.76-5.9,2.33-13.88-4.41-16.71-28.9-12.16-57.86-25.98-81.64-46.77-21.64-18.92-41.39-42.7-45.65-72-.94-6.46-9.71-9-14.69-5.98-23.77,14.44-50.77,20.94-78.24,23.6-14.17,1.37-28.44,2.1-42.66,2.47-12,.31-20.66-3.89-28.86-12.58-5.59-5.92-14.15-2.25-16.71,4.41-20.13,52.31-59.27,101.47-117.72,110.27-5.35.8-8.29,7.54-6.98,12.3,1.57,5.72,6.94,7.79,12.3,6.98h0Z"/>
  <path class="cls-1" d="M225.56,410.17c18.19-36.58,20.93-80.05,6.18-118.31l-4.6,11.29c28.27-21.55,53.9-46.08,76.22-73.77l-12.12,1.56c30.5,17.08,68.03,17.54,99.06,1.57l-13.68-3.59c17.89,38.22,57.57,63.81,99.5,65.75-2.36-5.69-4.71-11.38-7.07-17.07-27.85,33.23-34.4,79.59-17.31,119.34,4.56-4.56,9.12-9.12,13.68-13.68-11.56-6.48-22.18,1.61-30.58,9.29-7.81,7.15-14.68,15.39-20.56,24.18-11.93,17.82-18.92,38.22-21.45,59.44,5.69-2.36,11.38-4.71,17.07-7.07-17.02-16.01-41.1-16.35-63.11-16.44-21.1-.08-43.87.48-63.92,7.73l12.66,9.64c-.2-10.95-5.07-21.69-10.16-31.16s-10.88-17.8-19.51-23.99c-13.37-9.6-30.38-15.47-46.28-19.4-12.49-3.09-17.83,16.19-5.32,19.29,13.33,3.29,26.91,7.94,38.49,15.34,3.08,1.97,5.08,3.56,7.55,6.49.41.51.4.48-.02-.07.33.43.65.87.96,1.31.55.78,1.1,1.56,1.63,2.36,1.39,2.1,2.7,4.25,3.94,6.44,2.19,3.87,4.26,7.87,5.84,12.02.87,2.28,1.64,4.6,2.23,6.97.26,1.06.53,2.13.67,3.21-.21-1.66-.04.8-.03,1.19.11,6.05,6.37,11.92,12.66,9.64,17.6-6.37,37.1-6.96,55.62-7.02,16.74-.06,38.79-1.79,51.95,10.59,6.82,6.42,16.07,1.31,17.07-7.07,1.85-15.52,7.33-30.61,15.33-44,3.91-6.54,8.39-12.62,13.55-18.23,2.86-3.1,5.87-6.06,9.04-8.84,1.31-1.15,2.59-2.27,4.03-3.25,2.06-1.41,1.98-.52.55-1.32,3.88,2.18,8.94,1.61,12.12-1.56,3.4-3.4,3.34-7.98,1.56-12.12-13.25-30.82-7.3-69.47,14.18-95.11,5.58-6.65,1.98-16.65-7.07-17.07-35.31-1.64-67.34-24.04-82.23-55.85-2.37-5.07-9.24-5.87-13.68-3.59-24.57,12.65-54.81,11.91-78.87-1.57-3.53-1.98-9.35-1.88-12.12,1.56-21.16,26.26-45.33,50.2-72.17,70.65-3.27,2.5-6.3,6.88-4.6,11.29,12.8,33.21,11.75,70.89-4.16,102.9-5.71,11.49,11.53,21.63,17.27,10.09Z"/>
</svg>